<svg width="373" height="193" fill="none" xmlns="http://www.w3.org/2000/svg"><g clip-path="url(#a)" fill="#fff"><path d="M64.87 61.78c-.195 6.103-3.182 12.077-7.987 15.843-5 4.026-11.883 5.585-18.117 4.026-6.234-1.428-11.688-5.909-14.35-11.753-2.728-5.78-2.533-12.857.39-18.571 2.402-4.74 6.688-8.442 11.622-10.26-.194-.065-2.207.325-4.74 1.818-2.597 1.494-5.714 4.22-7.597 8.052-3.052 5.91-3.247 13.247-.39 19.286 2.727 6.104 8.442 10.714 14.935 12.208 6.494 1.558 13.637 0 18.831-4.221 5-3.896 8.117-10.13 8.312-16.494l-.909.065Z"/><path d="M67.662 53.727c-.26-.974-.65-1.948-1.104-2.922l-1.039.455c.39.909.78 1.818 1.04 2.792 2.532 8.117.26 17.532-5.715 23.571C55 83.793 45.65 86.39 37.467 84.117c-8.246-2.078-15.064-8.961-17.077-17.273-1.754-6.818-.325-14.35 3.896-20-.26.13-2.208 1.948-3.832 5.585-1.623 3.571-2.597 9.155-1.168 14.675 2.078 8.636 9.22 15.844 17.857 18.052 8.571 2.402 18.312-.325 24.48-6.818 6.299-6.234 8.702-16.04 6.04-24.61Z"/><path d="M67.597 45.545a30.348 30.348 0 0 0-5.584-6.298l-.91 1.104c2.079 1.688 3.832 3.766 5.326 5.974 2.857 4.415 4.415 9.74 4.35 15 .065 10.649-6.883 20.844-16.753 24.805-4.87 2.013-10.325 2.532-15.52 1.558-5.194-.974-10.064-3.571-13.83-7.272-6.3-6.104-9.221-15.39-7.663-24.026-.26.26-1.429 3.376-1.039 8.376.26 4.87 2.598 11.624 7.727 16.624 3.961 3.896 9.091 6.623 14.546 7.662 5.454 1.039 11.234.52 16.363-1.623 10.39-4.156 17.663-14.87 17.598-26.04 0-5.649-1.623-11.233-4.61-15.844Z"/><path d="M35.195 92.169c6.428 1.753 13.441 1.493 19.675-.844 6.234-2.338 11.753-6.624 15.52-12.208 3.766-5.52 5.714-12.273 5.52-18.961-.196-6.688-2.468-13.312-6.494-18.572-4.026-5.324-9.74-9.35-16.17-11.298-.584-.195-1.168-.325-1.753-.52l-.39 1.624c.585.13 1.105.324 1.69.454 6.038 1.883 11.493 5.65 15.324 10.715 3.831 5.064 6.039 11.298 6.169 17.662.195 6.298-1.689 12.727-5.26 17.922-3.571 5.26-8.766 9.35-14.675 11.558a30.655 30.655 0 0 1-18.702.845c-10.194-2.663-18.571-11.04-21.428-21.17-.13.39.26 4.416 3.311 9.546 3.052 5.13 9.286 11.04 17.663 13.247Z"/><path d="M82.792 48.662c-2.662-8.506-8.182-15.974-15.39-21.104-7.207-5.13-16.168-7.857-25-7.532-8.83.26-17.597 3.506-24.48 9.09-.195.13-.39.326-.584.52l1.428 1.689c.195-.13.39-.325.585-.455 6.493-5.325 14.805-8.377 23.181-8.571 8.377-.325 16.819 2.273 23.637 7.143 6.818 4.87 12.078 11.948 14.545 19.935 2.533 7.987 2.403 16.818-.454 24.675-2.793 7.922-8.247 14.87-15.26 19.415-11.559 7.793-27.403 8.507-39.61 1.819.26.52 4.48 3.83 12.207 5.519 3.831.844 8.572 1.104 13.572.325 5-.779 10.325-2.662 15.065-5.844 7.402-4.87 13.181-12.208 16.169-20.52 2.987-8.376 3.116-17.662.39-26.104Z"/><path d="M47.857 95.286C35.65 96.909 22.922 91.325 15.78 81.325c0 .52 2.078 4.74 7.533 9.09a32.485 32.485 0 0 0 10.584 5.52c4.286 1.364 9.22 1.883 14.156 1.234 7.727-.91 15.195-4.416 20.78-9.87 5.649-5.39 9.545-12.663 10.778-20.325 1.3-7.727.065-15.844-3.571-22.727-3.572-6.948-9.416-12.663-16.429-16.04-7.013-3.44-15.13-4.48-22.792-2.986-.195.065-.454.065-.65.13l.39 1.883c.195-.065.39-.065.65-.13 7.273-1.429 14.935-.455 21.623 2.857 6.688 3.182 12.208 8.636 15.585 15.195 3.441 6.558 4.61 14.22 3.376 21.493-1.169 7.273-4.805 14.156-10.195 19.286-5.39 5.13-12.402 8.377-19.74 9.35ZM3.571 152.039H2.143v4.221H.714v-9.546h2.857c1.364 0 2.858.844 2.858 2.663.064 1.753-1.494 2.662-2.858 2.662Zm-.26-4.156H2.144v2.922h1.169c.844 0 1.623-.454 1.623-1.428.065-1.039-.78-1.494-1.623-1.494Zm10 8.507c-2.532 0-5.064-1.884-5.064-4.935 0-3.052 2.532-4.936 5.065-4.936 2.532 0 5.065 1.884 5.065 4.936-.065 3.051-2.533 4.935-5.065 4.935Zm0-8.702c-1.753 0-3.57 1.364-3.57 3.702 0 2.337 1.817 3.701 3.57 3.701 1.754 0 3.572-1.364 3.572-3.701a3.627 3.627 0 0 0-3.571-3.702Zm7.533 8.507v-9.546h1.429v8.312h4.22v1.234h-5.649Zm10.585-4.416v4.416H30v-4.416l-3.636-5.13h1.558l1.883 2.663c.26.389.65.909.91 1.363l.908-1.363 1.948-2.663h1.494l-3.636 5.13Zm8.96-3.896v8.312h-1.428v-8.312h-2.857v-1.234h7.273v1.234H40.39Zm5.195 8.312v-9.546h5.13v1.234h-3.701v2.922h3.117v1.234h-3.117v2.922h4.22v1.234h-5.649Zm15.195-7.857c-.454-.325-1.428-.65-2.402-.65-1.884 0-3.832 1.234-3.832 3.702 0 2.467 1.948 3.701 3.832 3.701 1.103 0 2.013-.26 2.662-.585l-.325 1.364c-.584.325-1.298.455-2.467.455-2.403 0-5.13-1.689-5.13-4.935 0-3.312 2.792-4.935 5.13-4.935 1.298 0 2.208.324 2.792.649l-.26 1.234Zm9.091 7.857v-4.156h-4.935v4.156h-1.428v-9.546h1.428v4.156h4.935v-4.156H71.3v9.546H69.87Zm12.403.195-4.48-4.871a76.787 76.787 0 0 1-2.209-2.532v7.208h-1.428v-9.546h.974l4.09 4.481c.585.584 1.43 1.558 2.014 2.273v-6.819h1.428v9.741h-.39v.065Zm3.506-.195v-9.546h1.429v9.546h-1.429Zm11.883-7.857c-.454-.325-1.428-.65-2.402-.65-1.883 0-3.832 1.234-3.832 3.702 0 2.467 1.949 3.701 3.832 3.701 1.168 0 2.013-.26 2.662-.585l-.325 1.364c-.584.325-1.298.455-2.467.455-2.403 0-5.13-1.689-5.13-4.935 0-3.312 2.792-4.935 5.13-4.935 1.299 0 2.208.324 2.792.649l-.26 1.234ZM10 132.818c-5 0-10-3.701-10-9.805 0-6.039 4.935-9.74 10-9.74 5 0 10 3.701 10 9.74 0 6.104-5 9.805-10 9.805Zm0-17.078c-3.506 0-7.078 2.598-7.078 7.273s3.571 7.338 7.078 7.338c3.442 0 7.078-2.663 7.078-7.338 0-4.675-3.636-7.273-7.078-7.273Zm21.039.325v16.364h-2.857v-16.364h-6.04v-2.468h14.936v2.468h-6.04Zm20.52 16.428-2.014-4.87h-7.337l-2.013 4.87h-2.792l8.052-19.09h1.038l8.052 19.09h-2.987Zm-4.87-11.753c-.26-.649-.585-1.493-.78-2.272h-.065a15.4 15.4 0 0 1-.78 2.272l-1.882 4.611h5.39l-1.884-4.611Zm20.714 12.078c-5.065 0-10.325-3.376-10.325-9.74 0-6.494 5.454-9.805 10.13-9.805 2.597 0 4.675.649 6.104 1.493l-.52 2.468c-1.364-.909-3.247-1.494-5.26-1.494-3.7 0-7.597 2.403-7.597 7.338 0 4.87 3.766 7.273 7.597 7.273 1.754 0 3.117-.325 3.962-.974v-3.897h-4.221v-2.272h7.078v7.597c-1.819 1.429-4.091 2.013-6.948 2.013Zm21.558 0c-5 0-10-3.701-10-9.805 0-6.039 4.935-9.74 10-9.74 5 0 10 3.701 10 9.74-.065 6.104-5 9.805-10 9.805Zm0-17.078c-3.507 0-7.078 2.598-7.078 7.273s3.572 7.338 7.078 7.338c3.442 0 7.078-2.663 7.078-7.338 0-4.675-3.636-7.273-7.078-7.273ZM.26 139.377h98.052v.779H.26v-.779Zm2.857 23.831v5.584h-.65v-5.584H.39v-.585h4.87v.585H3.117ZM8.7 166.26l-.39.324H5.39c-.065.909.649 1.754 1.753 1.754.52 0 .974-.13 1.363-.455l-.194.649a2.308 2.308 0 0 1-1.234.325c-1.234 0-2.273-.909-2.273-2.273 0-1.428 1.04-2.272 2.078-2.272 1.169 0 1.818.844 1.818 1.623v.325Zm-1.818-1.429c-.714 0-1.364.585-1.428 1.234h2.662v-.13c0-.455-.455-1.104-1.234-1.104Zm8.507 3.961-2.728-2.922v2.922h-.649v-6.169h.65v2.922l2.662-2.922h.779l-2.727 3.052 2.857 3.117h-.844Zm4.61 0v-.519c-.26.324-.65.649-1.429.649-.974 0-1.688-.584-1.688-1.493v-2.923h.585v2.858c0 .584.454 1.039 1.233 1.039.78 0 1.234-.455 1.234-1.039v-2.858h.585v4.351H20v-.065Zm3.896-3.896c-.844 0-1.558.584-1.558 1.753v2.143h-.585v-4.35h.585v.844c.194-.52.714-.909 1.493-.909l.13.519h-.065Zm3.766 3.961a.835.835 0 0 1-.649-.649c-.26.389-.714.649-1.299.649-.844 0-1.363-.584-1.363-1.299 0-.844.714-1.298 1.363-1.363l1.17-.13v-.39c0-.519-.39-.844-1.04-.844-.39 0-.844.13-1.169.325l-.13-.52c.325-.194.845-.324 1.3-.324.908 0 1.623.519 1.623 1.428v2.013c0 .455.26.65.519.714l-.325.39Zm-.779-2.208-1.039.065c-.584.065-.909.39-.909.844 0 .455.39.78.844.78.52 0 1.169-.455 1.169-1.104v-.585h-.065Zm10.455 2.143-.26-3.182c-.065-.519-.065-1.104-.065-1.623-.195.519-.52 1.104-.78 1.623l-1.558 3.247h-.194l-1.559-3.247c-.26-.454-.52-1.104-.78-1.623 0 .519-.064 1.104-.064 1.558l-.26 3.182h-.584l.52-6.104h.389l1.688 3.442c.26.519.585 1.169.78 1.688.26-.584.519-1.104.779-1.688l1.688-3.442h.325l.52 6.104h-.585v.065Zm4.805.065a.835.835 0 0 1-.65-.649c-.26.389-.714.649-1.298.649-.844 0-1.364-.584-1.364-1.299 0-.844.714-1.298 1.364-1.363l1.169-.13v-.39c0-.519-.39-.844-1.04-.844-.389 0-.843.13-1.168.325l-.13-.52c.325-.194.844-.324 1.299-.324.909 0 1.623.519 1.623 1.428v2.013c0 .455.26.65.52.714l-.325.39Zm-.78-2.208-1.038.065c-.585.065-.91.39-.91.844 0 .455.39.78.845.78.52 0 1.169-.455 1.169-1.104v-.585h-.065Zm4.221-1.753h-1.428v2.792c0 .455.26.65.65.65.194 0 .389 0 .519-.065l-.13.584c-.065.065-.195.065-.39.065-.65 0-1.169-.39-1.169-1.169v-2.727h-.909v-.52h.91v-.974l.584-.324v1.234h1.558l-.195.454Zm3.961 3.961a.835.835 0 0 1-.649-.649c-.26.389-.714.649-1.299.649-.844 0-1.363-.584-1.363-1.299 0-.844.65-1.298 1.363-1.363l1.17-.13v-.39c0-.519-.39-.844-1.04-.844-.39 0-.844.13-1.169.325l-.13-.52c.325-.194.845-.324 1.3-.324.908 0 1.623.519 1.623 1.428v2.013c0 .455.26.65.52.714l-.326.39Zm-.714-2.208-1.039.065c-.584.065-.909.39-.909.844 0 .455.39.78.844.78.52 0 1.17-.455 1.17-1.104v-.585h-.066Zm4.22-1.753h-1.428v2.792c0 .455.26.65.65.65.194 0 .39 0 .52-.065l-.13.584c-.066.065-.26.065-.39.065-.65 0-1.17-.39-1.17-1.169v-2.727h-.908v-.52h.909v-.974l.584-.324v1.234h1.559l-.195.454Zm6.105 3.896v-2.922c0-.584-.455-1.039-1.234-1.039-.78 0-1.234.455-1.234 1.039v2.857h-.584v-4.35h.52v.519c.26-.325.649-.649 1.428-.649.974 0 1.688.584 1.688 1.493v2.922h-.584v.13Zm8.96 0-2.077-2.143v2.143h-.585v-6.818h.585v4.545l2.013-2.077h.714l-2.078 2.142 2.143 2.208h-.714Zm8.962.065c-1.688 0-3.182-1.299-3.182-3.182s1.494-3.182 3.182-3.182 3.182 1.299 3.182 3.182c.065 1.948-1.494 3.182-3.182 3.182Zm0-5.779c-1.364 0-2.533 1.039-2.533 2.597a2.55 2.55 0 0 0 2.533 2.598c1.364 0 2.532-1.039 2.532-2.598.065-1.558-1.168-2.597-2.532-2.597Zm6.688 1.818h-1.428v2.792c0 .455.26.65.649.65.195 0 .39 0 .52-.065l-.13.584c-.065.065-.26.065-.39.065-.65 0-1.234-.39-1.234-1.169v-2.727h-.909v-.52h.91v-.974l.584-.324v1.234h1.558l-.13.454Zm3.961 3.961a.835.835 0 0 1-.65-.649c-.259.389-.713.649-1.298.649-.844 0-1.363-.584-1.363-1.299 0-.844.714-1.298 1.363-1.363l1.169-.13v-.39c0-.519-.39-.844-1.039-.844-.39 0-.844.13-1.169.325l-.13-.52c.325-.194.844-.324 1.3-.324.908 0 1.622.519 1.622 1.428v2.013c0 .455.26.65.52.714l-.325.39Zm-.779-2.208-1.039.065c-.584.065-.909.39-.909.844 0 .455.39.78.844.78.52 0 1.169-.455 1.169-1.104v-.585h-.065ZM90.519 171c-1.168 0-1.948-.649-1.948-1.494 0-.714.52-1.233 1.04-1.298l-.52-.455c0-.324.325-.584.584-.714-.454-.195-.779-.649-.779-1.234 0-.844.65-1.428 1.623-1.428.26 0 .39.065.52.065.13.064.325.064.52.064.26 0 .519-.064.649-.129l.13.519c-.13.065-.39.13-.585.13.195.195.325.454.325.844 0 .779-.585 1.429-1.624 1.429-.454 0-.779.13-.779.324 0 .065.195.26.39.325l1.104.39c.714.259 1.169.649 1.169 1.363.065.715-.715 1.299-1.819 1.299Zm.585-2.208-.844-.26c-.65 0-1.104.455-1.104.974 0 .52.52.974 1.363.974.845 0 1.364-.454 1.364-.909 0-.389-.325-.649-.78-.779Zm-.585-3.961c-.584 0-1.038.455-1.038.909 0 .52.454.974 1.038.974.52 0 1.04-.389 1.04-.974 0-.454-.455-.909-1.04-.909Zm4.74 4.026c-1.298 0-2.272-.974-2.272-2.273 0-1.298.974-2.272 2.273-2.272 1.298 0 2.272.974 2.272 2.272.065 1.364-.974 2.273-2.272 2.273Zm0-3.961c-.973 0-1.688.714-1.688 1.753s.715 1.754 1.689 1.754c.909 0 1.688-.715 1.688-1.754 0-1.039-.714-1.753-1.688-1.753Zm-41.103 3.896v-4.35h.584v4.35h-.584Zm.26-5.909a.42.42 0 0 0-.39.39c0 .194.13.389.39.389.194 0 .39-.195.39-.389 0-.26-.196-.39-.39-.39Zm6.688 5.909v-4.35h.584v4.35h-.584Zm.325-5.909a.42.42 0 0 0-.39.39c0 .194.195.389.39.389.194 0 .39-.195.39-.389 0-.26-.196-.39-.39-.39Zm8.376 5.909v-4.35h.65v4.35h-.65Zm.26-5.909a.42.42 0 0 0-.39.39c0 .194.195.389.39.389s.39-.195.39-.389c0-.26-.195-.39-.39-.39Z"/><g clip-path="url(#b)"><path d="M260.192 119.5c12.475 4.6 30.801 7.973 51.437 8.587.154 0 .154-.154 0-.154-11.088-3.373-20.636-6.9-28.952-11.5-.154 0 0-.306 0-.306 14.014 1.073 34.496 1.073 56.365-6.44 8.624-28.06 16.94-59.954 24.178-93.687h-.308c-19.712 19.933-54.055 36.493-82.237 41.247-16.632-10.274-30.647-23.154-47.433-40.94-.154-.154-.462 0-.308.153 7.7 34.347 16.632 68.54 27.258 103.04Zm51.899-14.413c-10.626 4.906-21.714 8.433-31.724 10.12-9.086-5.367-17.402-12.114-26.181-21.467-.154-.153 0-.307.154-.153 18.173 8.126 38.039 11.96 57.597 11.346.308-.153.308 0 .154.154Zm32.187-19.78c-8.625 7.206-19.097 13.646-29.877 18.706-10.626-2.76-22.176-8.433-33.572-15.793-.154-.153 0-.307.154-.307 17.094 3.22 39.578 4.754 63.141-2.76.154 0 .308.154.154.154Zm-60.985-26.68c23.408 3.373 48.664 1.533 69.763-7.514.154 0 .308.154.154.154-10.934 9.813-21.869 17.48-35.729 23.92-12.782-5.06-24.024-10.274-34.342-16.254 0-.153 0-.306.154-.306Zm-38.809-2.147c22.793 12.727 46.971 17.94 70.533 19.627.154 0 .154.153 0 .306-10.318 4.447-22.176 7.82-36.344 10.274-13.552-8.894-25.873-19.78-34.343-30.054-.154 0 0-.153.154-.153ZM374 168.413c-1.078 0-1.54-.613-1.54-2.3v-7.053c0-3.68-1.848-5.673-5.236-5.673s-5.544 1.686-7.084 3.833l.308.307c1.232-1.074 2.618-1.534 3.85-1.534 2.31 0 3.08 1.38 3.08 3.834v.766c-3.542.767-7.854 1.534-7.854 5.98 0 2.147 1.386 3.834 3.542 3.834 1.848 0 3.388-.92 4.312-2.454.308 1.38 1.386 2.3 3.388 2.3 1.386 0 2.464-.613 3.234-1.533v-.307Zm-6.776-1.38c-.308.154-.77.154-1.386.154-1.386 0-2.002-1.074-2.002-2.3 0-1.994 1.078-3.067 3.388-3.527v5.673Zm-119.352-13.646c-4.774 0-7.854 2.913-7.854 8.126 0 4.754 2.926 8.74 7.7 8.74 3.696 0 6.006-1.993 6.776-4.906l-.154-.154c-.616.614-1.848 1.534-4.004 1.534-2.772 0-4.928-1.38-5.082-6.44h9.394c.154-3.68-2.31-6.9-6.776-6.9Zm1.848 5.98h-4.466c0-2.914.77-5.06 2.464-5.06 1.232 0 2.002.766 2.002 3.833v1.227Z"/><path d="m243.098 153.54-.77-7.053c-1.848.153-3.85.306-5.852.306h-7.854c-2.156 0-4.004-.153-5.852-.306l-.77 7.053h.462c3.388-4.753 4.928-5.673 6.16-5.673h1.078V163.2c0 3.067 0 4.293-.462 6.44v.153h6.776v-.153c-.616-2.147-.616-3.527-.616-6.44v-15.333h1.078c1.232 0 2.926.92 6.314 5.826h.308v-.153Zm47.279-2.607.154-1.38h-11.704l-.154 1.38h11.704Zm1.386 2.914h-5.544V154c.308.767.462 1.84.462 3.833v7.667c-.462 1.073-1.232 1.687-2.31 1.687-1.386 0-2.002-1.074-2.002-2.3V154h-5.236c.154.767.308 1.84.308 3.833v7.514c0 3.066 1.54 5.06 4.312 5.06 2.772 0 4.466-2.147 5.236-3.527h.154v2.913h5.544v-.153c-.462-1.993-.616-2.913-.616-6.44v-9.353h-.308Zm25.872-.46c-4.774 0-7.854 2.913-7.854 8.126 0 4.754 2.926 8.74 7.7 8.74 3.696 0 6.006-1.993 6.776-4.906l-.308-.154c-.616.614-1.848 1.534-4.004 1.534-2.772 0-4.928-1.38-5.082-6.44h9.394c.154-3.68-2.31-6.9-6.622-6.9Zm1.848 5.98h-4.466c0-2.914.77-5.06 2.464-5.06 1.232 0 2.002.766 2.002 3.833v1.227Zm21.407-1.687c0-2.607-2.002-4.293-4.774-4.293-2.773 0-3.851 1.686-4.775 3.066h-.154v-2.913l-5.698 1.687v.153c.462 1.227.77 2.607.77 4.907v4.14c0 2.606-.154 3.986-.308 5.366v.154h5.698v-.154a41.797 41.797 0 0 1-.308-5.366v-6.287c.308-.92 1.078-2.147 2.156-2.147 1.54 0 2.157 1.074 2.157 2.454v5.98a43.76 43.76 0 0 1-.309 5.366v.154h6.007v-.154c-.308-1.38-.616-2.76-.616-5.366v-6.747h.154Zm12.474 9.353-3.542-.306c-2.156-.307-2.926-.46-2.926-1.38 0-.307.154-.614.308-.92.924.306 2.002.613 3.234.613 4.312 0 6.93-2.147 6.93-5.827 0-1.686-.616-2.913-1.54-3.833l3.696.307h.154v-3.68h-.154l-4.466 2.76c-1.232-.92-2.464-1.38-4.62-1.38-4.004 0-6.93 2.453-6.93 5.826 0 2.147 1.078 3.834 2.772 4.754-1.54.766-2.926 2.146-2.926 3.986 0 1.534.77 2.454 2.31 2.914-1.848.153-3.696 1.073-3.696 2.606 0 2.3 3.234 3.527 8.008 3.527 5.082 0 9.24-1.993 9.24-5.52-.308-2.76-2.926-4.14-5.852-4.447Zm-3.08-12.726c1.54 0 2.156 1.533 2.156 4.753 0 3.373-.616 4.907-2.002 4.907-1.386 0-2.002-1.534-2.002-4.907-.154-3.22.308-4.753 1.848-4.753Zm.924 21.62c-3.08 0-5.236-1.074-5.236-3.067 0-.613.154-1.227.462-1.533a9.378 9.378 0 0 0 2.31.306l2.772.307c2.926.307 4.312.613 4.312 1.84 0 1.38-2.002 2.147-4.62 2.147Z"/><path d="m304.083 158.907 1.078-.92c1.54-1.227 2.618-2.3 4.774-3.68V154h-5.39l-1.078 4.293-3.388 2.607v-15.64l-5.698 1.84v.153c.462 1.38.616 2.607.616 4.907v12.727c0 2.606 0 3.526-.308 4.753v.153h5.698v-.153c-.154-1.073-.308-2.3-.308-4.753v-2.914l4.312 7.82h6.314v-.306c-.77-.92-1.386-1.687-2.156-3.067l-4.466-7.513Zm-36.652-12.114h-8.47v.154c.462 2.146.462 3.373.462 6.44v9.813c0 3.067 0 4.293-.462 6.44v.153h6.776v-.153c-.462-2.147-.616-3.527-.616-6.44v-2.76h1.694c6.314 0 9.086-3.22 9.086-7.207 0-3.833-2.156-6.44-8.47-6.44Zm-1.386 12.574h-.924v-11.5h.924c2.618 0 4.004 2.3 4.004 5.213.154 2.913-1.078 6.287-4.004 6.287Z"/></g></g><path fill="#fff" d="M165 0h2v193h-2z"/><defs><clipPath id="a"><path fill="#fff" d="M0 0h373v193H0z"/></clipPath><clipPath id="b"><path fill="#fff" transform="translate(222 16)" d="M0 0h152v161H0z"/></clipPath></defs></svg>