<?xml version="1.0" encoding="utf-8"?>
<!-- Generator: Adobe Illustrator 27.3.1, SVG Export Plug-In . SVG Version: 6.00 Build 0)  -->
<svg version="1.1" id="Layer_1" xmlns="http://www.w3.org/2000/svg" xmlns:xlink="http://www.w3.org/1999/xlink" x="0px" y="0px"
	 viewBox="0 0 373 193" style="enable-background:new 0 0 373 193;" xml:space="preserve">
<style type="text/css">
	.st0{clip-path:url(#SVGID_00000067958029797573789560000002019181929961557902_);}
	.st1{fill:#FFFFFF;}
	.st2{clip-path:url(#SVGID_00000099654862552245815210000017622022483990399372_);}
</style>
<g>
	<defs>
		<polygon id="SVGID_1_" points="18.4,0 354.6,1.1 354.6,194.1 18.4,193 		"/>
	</defs>
	<clipPath id="SVGID_00000119822466013648629700000003333468217557610119_">
		<use xlink:href="#SVGID_1_"  style="overflow:visible;"/>
	</clipPath>
	<g style="clip-path:url(#SVGID_00000119822466013648629700000003333468217557610119_);">
		<path class="st1" d="M83.2,61.8c-0.2,6.1-3.2,12.1-8,15.8c-5,4-11.9,5.6-18.1,4c-6.2-1.4-11.7-5.9-14.3-11.8
			c-2.7-5.8-2.5-12.9,0.4-18.6c2.4-4.7,6.7-8.4,11.6-10.3c-0.2-0.1-2.2,0.3-4.7,1.8c-2.6,1.5-5.7,4.2-7.6,8.1
			c-3.1,5.9-3.2,13.2-0.4,19.3c2.7,6.1,8.4,10.7,14.9,12.2c6.5,1.6,13.6,0,18.8-4.2c5-3.9,8.1-10.1,8.3-16.5L83.2,61.8L83.2,61.8z"
			/>
		<path class="st1" d="M86,53.7c-0.3-1-0.7-1.9-1.1-2.9l-1,0.5c0.4,0.9,0.8,1.8,1,2.8c2.5,8.1,0.3,17.5-5.7,23.6
			c-5.8,6.2-15.2,8.8-23.4,6.5c-8.2-2.1-15.1-9-17.1-17.3c-1.8-6.8-0.3-14.3,3.9-20c-0.3,0.1-2.2,1.9-3.8,5.6
			c-1.6,3.6-2.6,9.2-1.2,14.7c2.1,8.6,9.2,15.8,17.9,18.1c8.6,2.4,18.3-0.3,24.5-6.8C86.3,72.1,88.7,62.3,86,53.7L86,53.7z"/>
		<path class="st1" d="M86,45.5c-1.6-2.3-3.4-4.5-5.6-6.3l-0.9,1.1c2.1,1.7,3.8,3.8,5.3,6c2.9,4.4,4.4,9.7,4.3,15
			c0.1,10.6-6.9,20.8-16.8,24.8c-4.9,2-10.3,2.5-15.5,1.6c-5.2-1-10.1-3.6-13.8-7.3c-6.3-6.1-9.2-15.4-7.7-24
			c-0.3,0.3-1.4,3.4-1,8.4c0.3,4.9,2.6,11.6,7.7,16.6c4,3.9,9.1,6.6,14.5,7.7c5.5,1,11.2,0.5,16.4-1.6c10.4-4.2,17.7-14.9,17.6-26
			C90.6,55.7,89,50.2,86,45.5L86,45.5z"/>
		<path class="st1" d="M53.6,92.2c6.4,1.8,13.4,1.5,19.7-0.8C79.5,89,85,84.7,88.8,79.1c3.8-5.5,5.7-12.3,5.5-19
			c-0.2-6.7-2.5-13.3-6.5-18.6c-4-5.3-9.7-9.3-16.2-11.3c-0.6-0.2-1.2-0.3-1.8-0.5l-0.4,1.6c0.6,0.1,1.1,0.3,1.7,0.5
			c6,1.9,11.5,5.6,15.3,10.7c3.8,5.1,6,11.3,6.2,17.7c0.2,6.3-1.7,12.7-5.3,17.9c-3.6,5.3-8.8,9.3-14.7,11.6
			c-6,2.2-12.5,2.5-18.7,0.8c-10.2-2.7-18.6-11-21.4-21.2c-0.1,0.4,0.3,4.4,3.3,9.5C39,84.1,45.2,90,53.6,92.2z"/>
		<path class="st1" d="M101.2,48.7c-2.7-8.5-8.2-16-15.4-21.1c-7.2-5.1-16.2-7.9-25-7.5c-8.8,0.3-17.6,3.5-24.5,9.1
			c-0.2,0.1-0.4,0.3-0.6,0.5l1.4,1.7c0.2-0.1,0.4-0.3,0.6-0.5c6.5-5.3,14.8-8.4,23.2-8.6c8.4-0.3,16.8,2.3,23.6,7.1
			s12.1,11.9,14.5,19.9c2.5,8,2.4,16.8-0.5,24.7c-2.8,7.9-8.2,14.9-15.3,19.4c-11.6,7.8-27.4,8.5-39.6,1.8c0.3,0.5,4.5,3.8,12.2,5.5
			c3.8,0.8,8.6,1.1,13.6,0.3s10.3-2.7,15.1-5.8c7.4-4.9,13.2-12.2,16.2-20.5C103.8,66.4,103.9,57.1,101.2,48.7L101.2,48.7z"/>
		<path class="st1" d="M66.2,95.3c-12.2,1.6-24.9-4-32.1-14c0,0.5,2.1,4.7,7.5,9.1c3.2,2.5,6.7,4.3,10.6,5.5
			c4.3,1.4,9.2,1.9,14.2,1.2c7.7-0.9,15.2-4.4,20.8-9.9C92.9,81.9,96.7,74.6,98,67c1.3-7.7,0.1-15.8-3.6-22.7
			c-3.6-6.9-9.4-12.7-16.4-16c-7-3.4-15.1-4.5-22.8-3c-0.2,0.1-0.5,0.1-0.7,0.1l0.4,1.9c0.2-0.1,0.4-0.1,0.7-0.1
			c7.3-1.4,14.9-0.5,21.6,2.9c6.7,3.2,12.2,8.6,15.6,15.2c3.4,6.6,4.6,14.2,3.4,21.5C95,73.9,91.4,80.8,86,85.9S73.6,94.3,66.2,95.3
			L66.2,95.3z M21.9,152h-1.4v4.2h-1.4v-9.5h2.9c1.4,0,2.9,0.8,2.9,2.7C24.9,151.1,23.3,152,21.9,152L21.9,152z M21.7,147.9h-1.2
			v2.9h1.2c0.8,0,1.6-0.5,1.6-1.4C23.4,148.3,22.5,147.9,21.7,147.9L21.7,147.9z M31.7,156.4c-2.5,0-5.1-1.9-5.1-4.9
			c0-3.1,2.5-4.9,5.1-4.9c2.5,0,5.1,1.9,5.1,4.9C36.7,154.5,34.2,156.4,31.7,156.4L31.7,156.4z M31.7,147.7c-1.8,0-3.6,1.4-3.6,3.7
			c0,2.3,1.8,3.7,3.6,3.7c1.8,0,3.6-1.4,3.6-3.7C35.3,149.4,33.7,147.7,31.7,147.7C31.7,147.7,31.7,147.7,31.7,147.7L31.7,147.7z
			 M39.2,156.2v-9.5h1.4v8.3h4.2v1.2L39.2,156.2L39.2,156.2z M49.8,151.8v4.4h-1.4v-4.4l-3.6-5.1h1.6l1.9,2.7
			c0.3,0.4,0.7,0.9,0.9,1.4l0.9-1.4l1.9-2.7h1.5C53.4,146.6,49.8,151.8,49.8,151.8z M58.8,147.9v8.3h-1.4v-8.3h-2.9v-1.2h7.3v1.2
			H58.8L58.8,147.9z M64,156.2v-9.5h5.1v1.2h-3.7v2.9h3.1v1.2h-3.1v2.9h4.2v1.2L64,156.2L64,156.2z M79.1,148.3
			c-0.5-0.3-1.4-0.6-2.4-0.6c-1.9,0-3.8,1.2-3.8,3.7c0,2.5,1.9,3.7,3.8,3.7c1.1,0,2-0.3,2.7-0.6l-0.3,1.4c-0.6,0.3-1.3,0.5-2.5,0.5
			c-2.4,0-5.1-1.7-5.1-4.9c0-3.3,2.8-4.9,5.1-4.9c1.3,0,2.2,0.3,2.8,0.6L79.1,148.3z M88.2,156.2V152h-4.9v4.2h-1.4v-9.5h1.4v4.2
			h4.9v-4.2h1.4v9.5C89.7,156.2,88.2,156.2,88.2,156.2z M100.6,156.4l-4.5-4.9c-0.8-0.8-1.5-1.7-2.2-2.5v7.2h-1.4v-9.5h1l4.1,4.5
			c0.6,0.6,1.4,1.6,2,2.3v-6.8h1.4v9.7L100.6,156.4L100.6,156.4L100.6,156.4z M104.1,156.2v-9.5h1.4v9.5H104.1z M116,148.3
			c-0.5-0.3-1.4-0.6-2.4-0.6c-1.9,0-3.8,1.2-3.8,3.7c0,2.5,1.9,3.7,3.8,3.7c1.2,0,2-0.3,2.7-0.6l-0.3,1.4c-0.6,0.3-1.3,0.5-2.5,0.5
			c-2.4,0-5.1-1.7-5.1-4.9c0-3.3,2.8-4.9,5.1-4.9c1.3,0,2.2,0.3,2.8,0.6L116,148.3z M28.4,132.8c-5,0-10-3.7-10-9.8
			c0-6,4.9-9.7,10-9.7c5,0,10,3.7,10,9.7C38.4,129.1,33.4,132.8,28.4,132.8z M28.4,115.7c-3.5,0-7.1,2.6-7.1,7.3s3.6,7.3,7.1,7.3
			c3.4,0,7.1-2.7,7.1-7.3C35.4,118.3,31.8,115.7,28.4,115.7z M49.4,116.1v16.4h-2.9v-16.4h-6v-2.5h14.9v2.5H49.4L49.4,116.1z
			 M69.9,132.5l-2-4.9h-7.3l-2,4.9h-2.8l8.1-19.1h1l8.1,19.1H69.9L69.9,132.5z M65.1,120.7c-0.3-0.6-0.6-1.5-0.8-2.3h-0.1
			c-0.2,0.8-0.5,1.5-0.8,2.3l-1.9,4.6h5.4L65.1,120.7L65.1,120.7z M85.8,132.8c-5.1,0-10.3-3.4-10.3-9.7c0-6.5,5.5-9.8,10.1-9.8
			c2.6,0,4.7,0.6,6.1,1.5l-0.5,2.5c-1.4-0.9-3.2-1.5-5.3-1.5c-3.7,0-7.6,2.4-7.6,7.3c0,4.9,3.8,7.3,7.6,7.3c1.8,0,3.1-0.3,4-1v-3.9
			h-4.2v-2.3h7.1v7.6C90.9,132.2,88.6,132.8,85.8,132.8L85.8,132.8z M107.3,132.8c-5,0-10-3.7-10-9.8c0-6,4.9-9.7,10-9.7
			c5,0,10,3.7,10,9.7C117.3,129.1,112.3,132.8,107.3,132.8z M107.3,115.7c-3.5,0-7.1,2.6-7.1,7.3s3.6,7.3,7.1,7.3
			c3.4,0,7.1-2.7,7.1-7.3C114.4,118.3,110.8,115.7,107.3,115.7z M18.6,139.4h98.1v0.8H18.6V139.4z M21.5,163.2v5.6h-0.6v-5.6h-2.1
			v-0.6h4.9v0.6H21.5z M27.1,166.3l-0.4,0.3h-2.9c-0.1,0.9,0.6,1.8,1.8,1.8c0.5,0,1-0.1,1.4-0.5l-0.2,0.6c-0.4,0.2-0.8,0.3-1.2,0.3
			c-1.2,0-2.3-0.9-2.3-2.3c0-1.4,1-2.3,2.1-2.3c1.2,0,1.8,0.8,1.8,1.6L27.1,166.3L27.1,166.3z M25.3,164.8c-0.7,0-1.4,0.6-1.4,1.2
			h2.7v-0.1C26.5,165.5,26,164.8,25.3,164.8L25.3,164.8z M33.8,168.8l-2.7-2.9v2.9h-0.6v-6.2H31v2.9l2.7-2.9h0.8l-2.7,3.1l2.9,3.1
			C34.6,168.8,33.8,168.8,33.8,168.8z M38.4,168.8v-0.5c-0.3,0.3-0.6,0.6-1.4,0.6c-1,0-1.7-0.6-1.7-1.5v-2.9h0.6v2.9
			c0,0.6,0.5,1,1.2,1c0.8,0,1.2-0.5,1.2-1v-2.9h0.6v4.4L38.4,168.8L38.4,168.8L38.4,168.8z M42.3,164.9c-0.8,0-1.6,0.6-1.6,1.8v2.1
			h-0.6v-4.4h0.6v0.8c0.2-0.5,0.7-0.9,1.5-0.9L42.3,164.9C42.3,164.9,42.3,164.9,42.3,164.9z M46,168.9c-0.3-0.1-0.6-0.3-0.6-0.6
			c-0.3,0.4-0.7,0.6-1.3,0.6c-0.8,0-1.4-0.6-1.4-1.3c0-0.8,0.7-1.3,1.4-1.4l1.2-0.1v-0.4c0-0.5-0.4-0.8-1-0.8
			c-0.4,0-0.8,0.1-1.2,0.3l-0.1-0.5c0.3-0.2,0.8-0.3,1.3-0.3c0.9,0,1.6,0.5,1.6,1.4v2c0,0.5,0.3,0.6,0.5,0.7L46,168.9L46,168.9z
			 M45.3,166.6l-1,0.1c-0.6,0.1-0.9,0.4-0.9,0.8c0,0.5,0.4,0.8,0.8,0.8c0.5,0,1.2-0.5,1.2-1.1L45.3,166.6L45.3,166.6L45.3,166.6z
			 M55.7,168.8l-0.3-3.2c-0.1-0.5-0.1-1.1-0.1-1.6c-0.2,0.5-0.5,1.1-0.8,1.6l-1.6,3.2h-0.2l-1.6-3.2c-0.3-0.5-0.5-1.1-0.8-1.6
			c0,0.5-0.1,1.1-0.1,1.6l-0.3,3.2h-0.6l0.5-6.1h0.4l1.7,3.4c0.3,0.5,0.6,1.2,0.8,1.7c0.3-0.6,0.5-1.1,0.8-1.7l1.7-3.4h0.3l0.5,6.1
			L55.7,168.8C55.7,168.7,55.7,168.8,55.7,168.8z M60.5,168.9c-0.3-0.1-0.6-0.3-0.7-0.6c-0.3,0.4-0.7,0.6-1.3,0.6
			c-0.8,0-1.4-0.6-1.4-1.3c0-0.8,0.7-1.3,1.4-1.4l1.2-0.1v-0.4c0-0.5-0.4-0.8-1-0.8c-0.4,0-0.8,0.1-1.2,0.3l-0.1-0.5
			c0.3-0.2,0.8-0.3,1.3-0.3c0.9,0,1.6,0.5,1.6,1.4v2c0,0.5,0.3,0.6,0.5,0.7L60.5,168.9L60.5,168.9z M59.7,166.6l-1,0.1
			c-0.6,0.1-0.9,0.4-0.9,0.8c0,0.5,0.4,0.8,0.8,0.8c0.5,0,1.2-0.5,1.2-1.1L59.7,166.6L59.7,166.6L59.7,166.6z M64,164.9h-1.4v2.8
			c0,0.5,0.3,0.6,0.7,0.6c0.2,0,0.4,0,0.5-0.1l-0.1,0.6c-0.1,0.1-0.2,0.1-0.4,0.1c-0.7,0-1.2-0.4-1.2-1.2V165h-0.9v-0.5H62v-1
			l0.6-0.3v1.2h1.6L64,164.9L64,164.9z M67.9,168.9c-0.3-0.1-0.6-0.3-0.6-0.6c-0.3,0.4-0.7,0.6-1.3,0.6c-0.8,0-1.4-0.6-1.4-1.3
			c0-0.8,0.7-1.3,1.4-1.4l1.2-0.1v-0.4c0-0.5-0.4-0.8-1-0.8c-0.4,0-0.8,0.1-1.2,0.3l-0.1-0.5c0.3-0.2,0.8-0.3,1.3-0.3
			c0.9,0,1.6,0.5,1.6,1.4v2c0,0.5,0.3,0.6,0.5,0.7L67.9,168.9L67.9,168.9z M67.2,166.6l-1,0.1c-0.6,0.1-0.9,0.4-0.9,0.8
			c0,0.5,0.4,0.8,0.8,0.8c0.5,0,1.2-0.5,1.2-1.1L67.2,166.6L67.2,166.6L67.2,166.6z M71.4,164.9H70v2.8c0,0.5,0.3,0.6,0.7,0.6
			c0.2,0,0.4,0,0.5-0.1l-0.1,0.6c-0.1,0.1-0.3,0.1-0.4,0.1c-0.7,0-1.2-0.4-1.2-1.2V165h-0.9v-0.5h0.9v-1l0.6-0.3v1.2h1.6L71.4,164.9
			L71.4,164.9z M77.5,168.8v-2.9c0-0.6-0.5-1-1.2-1c-0.8,0-1.2,0.5-1.2,1v2.9h-0.6v-4.4H75v0.5c0.3-0.3,0.6-0.6,1.4-0.6
			c1,0,1.7,0.6,1.7,1.5v2.9h-0.6V168.8L77.5,168.8z M86.5,168.8l-2.1-2.1v2.1h-0.6V162h0.6v4.5l2-2.1h0.7l-2.1,2.1l2.1,2.2H86.5
			L86.5,168.8z M95.4,168.9c-1.7,0-3.2-1.3-3.2-3.2s1.5-3.2,3.2-3.2s3.2,1.3,3.2,3.2C98.7,167.6,97.1,168.9,95.4,168.9z M95.4,163.1
			c-1.4,0-2.5,1-2.5,2.6c0,1.4,1.1,2.6,2.5,2.6c0,0,0,0,0,0c1.4,0,2.5-1,2.5-2.6C98,164.1,96.8,163.1,95.4,163.1z M102.1,164.9h-1.4
			v2.8c0,0.5,0.3,0.6,0.6,0.6c0.2,0,0.4,0,0.5-0.1l-0.1,0.6c-0.1,0.1-0.3,0.1-0.4,0.1c-0.7,0-1.2-0.4-1.2-1.2V165h-0.9v-0.5h0.9v-1
			l0.6-0.3v1.2h1.6L102.1,164.9L102.1,164.9z M106.1,168.9c-0.3-0.1-0.6-0.3-0.7-0.6c-0.3,0.4-0.7,0.6-1.3,0.6
			c-0.8,0-1.4-0.6-1.4-1.3c0-0.8,0.7-1.3,1.4-1.4l1.2-0.1v-0.4c0-0.5-0.4-0.8-1-0.8c-0.4,0-0.8,0.1-1.2,0.3l-0.1-0.5
			c0.3-0.2,0.8-0.3,1.3-0.3c0.9,0,1.6,0.5,1.6,1.4v2c0,0.5,0.3,0.6,0.5,0.7L106.1,168.9L106.1,168.9z M105.3,166.6l-1,0.1
			c-0.6,0.1-0.9,0.4-0.9,0.8c0,0.5,0.4,0.8,0.8,0.8c0.5,0,1.2-0.5,1.2-1.1L105.3,166.6L105.3,166.6L105.3,166.6z M108.9,171
			c-1.2,0-1.9-0.6-1.9-1.5c0-0.7,0.5-1.2,1-1.3l-0.5-0.5c0-0.3,0.3-0.6,0.6-0.7c-0.5-0.2-0.8-0.6-0.8-1.2c0-0.8,0.7-1.4,1.6-1.4
			c0.3,0,0.4,0.1,0.5,0.1c0.1,0.1,0.3,0.1,0.5,0.1c0.3,0,0.5-0.1,0.6-0.1l0.1,0.5c-0.1,0.1-0.4,0.1-0.6,0.1c0.2,0.2,0.3,0.5,0.3,0.8
			c0,0.8-0.6,1.4-1.6,1.4c-0.5,0-0.8,0.1-0.8,0.3c0,0.1,0.2,0.3,0.4,0.3l1.1,0.4c0.7,0.3,1.2,0.6,1.2,1.4
			C110.8,170.4,110,171,108.9,171z M109.5,168.8l-0.8-0.3c-0.7,0-1.1,0.5-1.1,1c0,0.5,0.5,1,1.4,1c0.8,0,1.4-0.5,1.4-0.9
			C110.3,169.2,109.9,168.9,109.5,168.8L109.5,168.8z M108.9,164.8c-0.6,0-1,0.5-1,0.9c0,0.5,0.5,1,1,1c0.5,0,1-0.4,1-1
			C109.9,165.3,109.5,164.8,108.9,164.8z M113.6,168.9c-1.3,0-2.3-1-2.3-2.3c0-1.3,1-2.3,2.3-2.3c1.3,0,2.3,1,2.3,2.3
			C116,167.9,114.9,168.9,113.6,168.9L113.6,168.9z M113.6,164.9c-1,0-1.7,0.7-1.7,1.8s0.7,1.8,1.7,1.8c0.9,0,1.7-0.7,1.7-1.8
			S114.6,164.9,113.6,164.9L113.6,164.9z M72.5,168.8v-4.4h0.6v4.4H72.5z M72.8,162.9c-0.2,0-0.4,0.2-0.4,0.4c0,0.2,0.1,0.4,0.4,0.4
			c0.2,0,0.4-0.2,0.4-0.4C73.2,163,73,162.9,72.8,162.9z M79.5,168.8v-4.4h0.6v4.4H79.5z M79.8,162.9c-0.2,0-0.4,0.2-0.4,0.4
			c0,0.2,0.2,0.4,0.4,0.4c0.2,0,0.4-0.2,0.4-0.4C80.2,163,80,162.9,79.8,162.9z M88.2,168.8v-4.4h0.7v4.4H88.2z M88.4,162.9
			c-0.2,0-0.4,0.2-0.4,0.4c0,0.2,0.2,0.4,0.4,0.4s0.4-0.2,0.4-0.4C88.8,163,88.6,162.9,88.4,162.9z"/>
		<g>
			<defs>
				<rect id="SVGID_00000009570425709936877960000016213077751613635006_" x="203.6" y="17.1" width="152" height="161"/>
			</defs>
			<clipPath id="SVGID_00000082369337790025997510000001839777766585353857_">
				<use xlink:href="#SVGID_00000009570425709936877960000016213077751613635006_"  style="overflow:visible;"/>
			</clipPath>
			<g style="clip-path:url(#SVGID_00000082369337790025997510000001839777766585353857_);">
				<path class="st1" d="M241.8,120.6c12.5,4.6,30.8,8,51.4,8.6c0.2,0,0.2-0.2,0-0.2c-11.1-3.4-20.6-6.9-29-11.5c-0.2,0,0-0.3,0-0.3
					c14,1.1,34.5,1.1,56.4-6.4c8.6-28.1,16.9-60,24.2-93.7h-0.3c-19.7,19.9-54.1,36.5-82.2,41.2c-16.6-10.3-30.6-23.2-47.4-40.9
					c-0.2-0.2-0.5,0-0.3,0.2C222.3,51.9,231.2,86.1,241.8,120.6L241.8,120.6z M293.7,106.2c-10.6,4.9-21.7,8.4-31.7,10.1
					c-9.1-5.4-17.4-12.1-26.2-21.5c-0.2-0.2,0-0.3,0.2-0.2c18.2,8.1,38,12,57.6,11.3C293.9,105.9,293.9,106,293.7,106.2z
					 M325.9,86.4c-8.6,7.2-19.1,13.6-29.9,18.7c-10.6-2.8-22.2-8.4-33.6-15.8c-0.2-0.2,0-0.3,0.2-0.3c17.1,3.2,39.6,4.8,63.1-2.8
					C325.9,86.3,326.1,86.4,325.9,86.4L325.9,86.4z M264.9,59.7c23.4,3.4,48.7,1.5,69.8-7.5c0.2,0,0.3,0.2,0.2,0.2
					c-10.9,9.8-21.9,17.5-35.7,23.9c-12.8-5.1-24-10.3-34.3-16.3C264.8,59.9,264.8,59.7,264.9,59.7L264.9,59.7z M226.1,57.6
					c22.8,12.7,47,17.9,70.5,19.6c0.2,0,0.2,0.2,0,0.3c-10.3,4.4-22.2,7.8-36.3,10.3C246.8,78.9,234.4,68,226,57.7
					C225.8,57.7,226,57.6,226.1,57.6z M355.6,169.5c-1.1,0-1.5-0.6-1.5-2.3v-7.1c0-3.7-1.8-5.7-5.2-5.7s-5.5,1.7-7.1,3.8l0.3,0.3
					c1.2-1.1,2.6-1.5,3.9-1.5c2.3,0,3.1,1.4,3.1,3.8v0.8c-3.5,0.8-7.9,1.5-7.9,6c0,2.1,1.4,3.8,3.5,3.8c1.8,0,3.4-0.9,4.3-2.5
					c0.3,1.4,1.4,2.3,3.4,2.3c1.4,0,2.5-0.6,3.2-1.5V169.5z M348.9,168.1c-0.3,0.2-0.8,0.2-1.4,0.2c-1.4,0-2-1.1-2-2.3
					c0-2,1.1-3.1,3.4-3.5V168.1L348.9,168.1z M229.5,154.5c-4.8,0-7.9,2.9-7.9,8.1c0,4.8,2.9,8.7,7.7,8.7c3.7,0,6-2,6.8-4.9
					l-0.2-0.2c-0.6,0.6-1.8,1.5-4,1.5c-2.8,0-4.9-1.4-5.1-6.4h9.4C236.4,157.7,234,154.5,229.5,154.5L229.5,154.5z M231.4,160.5
					h-4.5c0-2.9,0.8-5.1,2.5-5.1c1.2,0,2,0.8,2,3.8V160.5z"/>
				<path class="st1" d="M224.7,154.7l-0.8-7.1c-1.8,0.2-3.9,0.3-5.9,0.3h-7.9c-2.2,0-4-0.2-5.9-0.3l-0.8,7.1h0.5
					c3.4-4.8,4.9-5.7,6.2-5.7h1.1v15.3c0,3.1,0,4.3-0.5,6.4v0.2h6.8v-0.2c-0.6-2.1-0.6-3.5-0.6-6.4V149h1.1c1.2,0,2.9,0.9,6.3,5.8
					h0.3L224.7,154.7L224.7,154.7z M272,152l0.2-1.4h-11.7l-0.2,1.4H272z M273.4,155h-5.5v0.2c0.3,0.8,0.5,1.8,0.5,3.8v7.7
					c-0.5,1.1-1.2,1.7-2.3,1.7c-1.4,0-2-1.1-2-2.3v-10.9h-5.2c0.2,0.8,0.3,1.8,0.3,3.8v7.5c0,3.1,1.5,5.1,4.3,5.1s4.5-2.1,5.2-3.5
					h0.2v2.9h5.5v-0.2c-0.5-2-0.6-2.9-0.6-6.4V155L273.4,155L273.4,155z M299.3,154.5c-4.8,0-7.9,2.9-7.9,8.1c0,4.8,2.9,8.7,7.7,8.7
					c3.7,0,6-2,6.8-4.9l-0.3-0.2c-0.6,0.6-1.8,1.5-4,1.5c-2.8,0-4.9-1.4-5.1-6.4h9.4C306,157.7,303.6,154.5,299.3,154.5z
					 M301.1,160.5h-4.5c0-2.9,0.8-5.1,2.5-5.1c1.2,0,2,0.8,2,3.8V160.5z M322.5,158.8c0-2.6-2-4.3-4.8-4.3c-2.8,0-3.9,1.7-4.8,3.1
					h-0.2v-2.9l-5.7,1.7v0.2c0.5,1.2,0.8,2.6,0.8,4.9v4.1c0,2.6-0.2,4-0.3,5.4v0.2h5.7v-0.2c-0.2-1.8-0.3-3.6-0.3-5.4v-6.3
					c0.3-0.9,1.1-2.1,2.2-2.1c1.5,0,2.2,1.1,2.2,2.5v6c0,1.8-0.1,3.6-0.3,5.4v0.2h6v-0.2c-0.3-1.4-0.6-2.8-0.6-5.4v-6.7L322.5,158.8
					L322.5,158.8z M335,168.1l-3.5-0.3c-2.2-0.3-2.9-0.5-2.9-1.4c0-0.3,0.2-0.6,0.3-0.9c0.9,0.3,2,0.6,3.2,0.6
					c4.3,0,6.9-2.1,6.9-5.8c0-1.7-0.6-2.9-1.5-3.8l3.7,0.3h0.2v-3.7h-0.2l-4.5,2.8c-1.2-0.9-2.5-1.4-4.6-1.4c-4,0-6.9,2.5-6.9,5.8
					c0,2.1,1.1,3.8,2.8,4.8c-1.5,0.8-2.9,2.1-2.9,4c0,1.5,0.8,2.5,2.3,2.9c-1.8,0.2-3.7,1.1-3.7,2.6c0,2.3,3.2,3.5,8,3.5
					c5.1,0,9.2-2,9.2-5.5C340.5,169.8,337.9,168.5,335,168.1L335,168.1z M331.9,155.4c1.5,0,2.2,1.5,2.2,4.8c0,3.4-0.6,4.9-2,4.9
					c-1.4,0-2-1.5-2-4.9C329.9,157,330.4,155.4,331.9,155.4L331.9,155.4z M332.8,177c-3.1,0-5.2-1.1-5.2-3.1c0-0.6,0.2-1.2,0.5-1.5
					c0.8,0.2,1.5,0.3,2.3,0.3l2.8,0.3c2.9,0.3,4.3,0.6,4.3,1.8C337.5,176.3,335.5,177,332.8,177L332.8,177z"/>
				<path class="st1" d="M285.7,160l1.1-0.9c1.5-1.2,2.6-2.3,4.8-3.7v-0.3h-5.4l-1.1,4.3l-3.4,2.6v-15.6l-5.7,1.8v0.2
					c0.5,1.4,0.6,2.6,0.6,4.9V166c0,2.6,0,3.5-0.3,4.8v0.2h5.7v-0.2c-0.2-1.1-0.3-2.3-0.3-4.8v-2.9l4.3,7.8h6.3v-0.3
					c-0.8-0.9-1.4-1.7-2.2-3.1L285.7,160L285.7,160z M249.1,147.9h-8.5v0.2c0.5,2.1,0.5,3.4,0.5,6.4v9.8c0,3.1,0,4.3-0.5,6.4v0.2
					h6.8v-0.2c-0.5-2.1-0.6-3.5-0.6-6.4v-2.8h1.7c6.3,0,9.1-3.2,9.1-7.2C257.5,150.5,255.4,147.9,249.1,147.9L249.1,147.9z
					 M247.7,160.5h-0.9V149h0.9c2.6,0,4,2.3,4,5.2C251.8,157.1,250.6,160.5,247.7,160.5z"/>
			</g>
		</g>
	</g>
</g>
<path class="st1" d="M165,0h2v193h-2V0z"/>
</svg>
