<?xml version="1.0" encoding="utf-8"?>
<!-- Generator: Adobe Illustrator 19.0.1, SVG Export Plug-In . SVG Version: 6.00 Build 0)  -->
<!DOCTYPE svg PUBLIC "-//W3C//DTD SVG 1.1//EN" "http://www.w3.org/Graphics/SVG/1.1/DTD/svg11.dtd">
<svg version="1.1" id="Layer_1" xmlns="http://www.w3.org/2000/svg" xmlns:xlink="http://www.w3.org/1999/xlink" x="0px" y="0px"
	 viewBox="0 0 93.3 93.3" enable-background="new 0 0 93.3 93.3" xml:space="preserve">
<g>
	<circle fill="#EF573D" cx="46.6" cy="46.6" r="46.6"/>
	<g>
		<g>
			<path fill="#FFFFFF" d="M65.7,71c-1.3,0-2.6-0.5-3.5-1.5L23.8,31.2c-2-2-2-5.1,0-7.1c2-2,5.1-2,7.1,0l38.4,38.4c2,2,2,5.1,0,7.1
				C68.2,70.5,67,71,65.7,71z"/>
		</g>
		<g>
			<path fill="#FFFFFF" d="M27.3,71c-1.3,0-2.6-0.5-3.5-1.5c-2-2-2-5.1,0-7.1l38.4-38.4c2-2,5.1-2,7.1,0c2,2,2,5.1,0,7.1L30.8,69.5
				C29.9,70.5,28.6,71,27.3,71z"/>
		</g>
	</g>
</g>
</svg>
