<?xml version="1.0" encoding="utf-8"?>
<!-- Generator: Adobe Illustrator 27.0.0, SVG Export Plug-In . SVG Version: 6.00 Build 0)  -->
<svg version="1.1" id="Layer_1" xmlns="http://www.w3.org/2000/svg" xmlns:xlink="http://www.w3.org/1999/xlink" x="0px" y="0px"
	 viewBox="0 0 57.7 58" style="enable-background:new 0 0 57.7 58;" xml:space="preserve">
<style type="text/css">
	.st0{fill:#183121;}
	.st1{fill:#FFFFFF;}
</style>
<g id="Layer_2_00000064324635113952370120000011873613830332759215_">
	<polyline class="st0" points="36.2,-14.1 71.7,-14.1 71.7,70.3 -13.3,70.3 -13.3,-14.1 36.2,-14.1 	"/>
</g>
<g id="Layer_1_00000062898962688257348600000011938158323506181024_">
	<g>
		<path class="st1" d="M17.5,35.3c3.9,1.4,9.6,2.5,16,2.7c0,0,0,0,0-0.1c-3.5-1-6.4-2.1-9-3.6v-0.1c4.4,0.3,10.7,0.4,17.5-2
			c2.7-8.8,5.3-18.7,7.5-29.3c0-0.1-0.1-0.1-0.1,0c-6.1,6.2-16.8,11.4-25.6,12.9C18.6,12.6,14.2,8.5,9,3H8.9
			C11.3,13.8,14.1,24.5,17.5,35.3z M33.6,30.8c-3.3,1.5-6.8,2.6-9.9,3.2c-2.8-1.7-5.4-3.8-8.2-6.7v-0.1
			C21.3,29.6,27.5,30.9,33.6,30.8C33.6,30.7,33.6,30.7,33.6,30.8z M43.6,24.6c-2.7,2.3-6,4.2-9.3,5.8c-3.3-0.9-6.9-2.7-10.4-4.9
			v-0.1C29.3,26.4,36.2,26.9,43.6,24.6C43.6,24.5,43.7,24.6,43.6,24.6z M24.6,16.2c7.3,1.1,15.1,0.5,21.7-2.4c0,0,0.1,0,0,0.1
			c-3.4,3-6.8,5.5-11.1,7.5C31.3,19.8,27.8,18.2,24.6,16.2C24.6,16.3,24.6,16.2,24.6,16.2z M12.5,15.6c7.1,4,14.6,5.6,22,6.1
			c0,0,0.1,0.1,0,0.1c-3.2,1.4-6.9,2.5-11.3,3.2C19,22.2,15.1,18.8,12.5,15.6L12.5,15.6z"/>
		<g>
			<path class="st1" d="M54.7,50.6c-0.4,0-0.5-0.2-0.5-0.7v-2.2c0-1.2-0.6-1.8-1.6-1.8c-1.1,0-1.7,0.5-2.2,1.2l0.1,0.1
				c0.4-0.3,0.8-0.5,1.2-0.5c0.7,0,0.9,0.4,0.9,1.2v0.2c-1.1,0.2-2.4,0.5-2.4,1.9c0,0.7,0.4,1.2,1.1,1.2c0.6,0,1-0.3,1.4-0.8
				c0.1,0.4,0.5,0.7,1,0.7C54.2,51.2,54.5,51,54.7,50.6L54.7,50.6z M52.6,50.2c-0.1,0-0.3,0.1-0.4,0.1c-0.4,0-0.6-0.4-0.6-0.7
				c0-0.6,0.4-1,1-1.1V50.2z"/>
			<path class="st1" d="M12.4,45.9c-1.5,0-2.5,0.9-2.5,2.6c0,1.5,0.9,2.7,2.4,2.7c1.1,0,1.9-0.6,2.1-1.6h-0.1
				c-0.2,0.2-0.6,0.5-1.2,0.5c-0.9,0-1.6-0.5-1.6-2h2.9C14.5,46.9,13.8,45.9,12.4,45.9z M13,47.7h-1.4c0-0.9,0.3-1.6,0.8-1.6
				c0.4,0,0.6,0.2,0.6,1.2V47.7z"/>
			<path class="st1" d="M10.3,45.9L10,43.7c-0.6,0-1.2,0.1-1.8,0.1H5.7c-0.7,0-1.2,0-1.8-0.1l-0.2,2.2h0.1c1.1-1.5,1.6-1.8,2-1.8
				h0.3v4.8c0,1,0,1.4-0.2,2l0,0H8l0,0c-0.2-0.7-0.2-1.1-0.2-2v-4.8h0.3c0.4,0,0.9,0.3,2,1.8H10.3z"/>
			<polygon class="st1" points="27.2,45.1 27.3,44.7 23.6,44.7 23.6,45.1 			"/>
			<path class="st1" d="M27.7,46H26l0,0c0.1,0.2,0.2,0.6,0.2,1.2v2.4c-0.2,0.3-0.4,0.5-0.7,0.5c-0.4,0-0.6-0.3-0.6-0.7V46h-1.7v0.1
				c0,0.2,0.1,0.6,0.1,1.2v2.3c0,0.9,0.5,1.6,1.3,1.6c0.9,0,1.4-0.7,1.6-1.1l0,0V51h1.7l0,0c-0.1-0.6-0.2-0.9-0.2-2
				C27.7,49,27.7,46,27.7,46z"/>
			<path class="st1" d="M36.3,45.9c-1.5,0-2.5,0.9-2.5,2.6c0,1.5,0.9,2.7,2.4,2.7c1.1,0,1.9-0.6,2.1-1.6h-0.1
				c-0.2,0.2-0.6,0.5-1.2,0.5c-0.9,0-1.6-0.5-1.6-2h2.9C38.4,46.9,37.7,45.9,36.3,45.9z M36.9,47.7h-1.4c0-0.9,0.3-1.6,0.8-1.6
				c0.4,0,0.6,0.2,0.6,1.2C36.9,47.3,36.9,47.7,36.9,47.7z"/>
			<path class="st1" d="M43.9,47.2c0-0.8-0.6-1.4-1.5-1.4s-1.2,0.5-1.5,0.9l0,0v-0.8l-1.8,0.5l0,0c0.2,0.4,0.3,0.8,0.3,1.5v1.3
				c0,0.8,0,1.2-0.1,1.7l0,0h1.8l0,0C41,50.4,41,50,41,49.2v-2c0.1-0.3,0.3-0.7,0.7-0.7c0.5,0,0.7,0.4,0.7,0.8v1.9
				c0,0.8,0,1.2-0.1,1.7l0,0h1.9l0,0C44.1,50.4,44,50,44,49.2v-2H43.9z"/>
			<path class="st1" d="M48,50.2l-1.1-0.1C46.2,50,46,50,46,49.7c0-0.1,0-0.2,0.1-0.3c0.3,0.1,0.6,0.2,1,0.2c1.4,0,2.2-0.7,2.2-1.8
				c0-0.5-0.2-0.9-0.5-1.2l1.2,0.1l0,0v-1.1h-0.1l-1.4,0.9c-0.4-0.3-0.8-0.4-1.4-0.4c-1.3,0-2.2,0.8-2.2,1.8c0,0.7,0.3,1.2,0.9,1.5
				c-0.5,0.2-0.9,0.7-0.9,1.3c0,0.5,0.3,0.8,0.7,0.9c-0.6,0.1-1.1,0.3-1.1,0.8c0,0.7,1,1.1,2.5,1.1c1.6,0,2.9-0.6,2.9-1.7
				C49.8,50.7,49,50.3,48,50.2z M47.1,46.2c0.5,0,0.7,0.5,0.7,1.5c0,1.1-0.2,1.5-0.6,1.5c-0.5,0-0.6-0.5-0.6-1.5
				C46.4,46.7,46.6,46.2,47.1,46.2z M47.4,53c-1,0-1.7-0.3-1.7-1c0-0.2,0.1-0.4,0.1-0.5c0.2,0,0.4,0.1,0.7,0.1l0.9,0.1
				c0.9,0.1,1.4,0.2,1.4,0.6S48.2,53,47.4,53z"/>
			<path class="st1" d="M31.8,47.6l0.3-0.3c0.5-0.4,0.8-0.7,1.5-1.2V46h-1.7l-0.4,1.4l-1.1,0.8v-4.9l-1.7,0.6l0,0
				c0.1,0.4,0.2,0.8,0.2,1.5v4c0,0.8,0,1.1-0.1,1.5l0,0h1.8l0,0c-0.1-0.4-0.1-0.7-0.1-1.5v-0.9l1.3,2.5h2v-0.1
				c-0.2-0.3-0.4-0.5-0.7-1L31.8,47.6z"/>
			<path class="st1" d="M19.8,43.8h-2.7l0,0c0.1,0.7,0.2,1.1,0.2,2v3.1c0,1,0,1.4-0.2,2l0,0h2.1l0,0c-0.2-0.7-0.2-1.1-0.2-2V48h0.5
				c2,0,2.8-1,2.8-2.3C22.5,44.6,21.8,43.8,19.8,43.8z M19.4,47.7h-0.3v-3.6c0.1,0,0.2,0,0.3,0c0.8,0,1.3,0.7,1.3,1.7
				C20.6,46.7,20.3,47.7,19.4,47.7z"/>
		</g>
	</g>
</g>
</svg>
