<?xml version="1.0" encoding="utf-8"?>
<!-- Generator: Adobe Illustrator 16.0.0, SVG Export Plug-In . SVG Version: 6.00 Build 0)  -->
<!DOCTYPE svg PUBLIC "-//W3C//DTD SVG 1.1//EN" "http://www.w3.org/Graphics/SVG/1.1/DTD/svg11.dtd">
<svg version="1.1" id="Layer_1" xmlns="http://www.w3.org/2000/svg" xmlns:xlink="http://www.w3.org/1999/xlink" x="0px" y="0px"
	 width="98.28px" height="151.02px" viewBox="0 0 98.28 151.02" enable-background="new 0 0 98.28 151.02" xml:space="preserve">
<path fill="#98C13D" d="M64.98,40.812c-0.203,5.964-3.158,11.787-7.938,15.476c-4.969,3.933-11.8,5.434-17.991,3.941
	c-6.21-1.412-11.623-5.764-14.253-11.478c-2.719-5.676-2.548-12.555,0.391-18.117c2.396-4.607,6.614-8.269,11.569-10.017
	c-0.217-0.051-2.163,0.304-4.738,1.764c-2.551,1.434-5.644,4.149-7.571,7.883c-3.055,5.778-3.234,12.936-0.402,18.826
	c2.727,5.937,8.357,10.462,14.812,11.936c6.435,1.54,13.542-0.011,18.698-4.096c4.971-3.838,8.037-9.887,8.246-16.089L64.98,40.812z
	"/>
<path fill="#98C13D" d="M67.756,32.992c-0.289-0.978-0.646-1.929-1.064-2.865l-1.014,0.443c0.396,0.89,0.742,1.798,1.02,2.744
	c2.547,7.932,0.27,17.112-5.654,23.037c-5.828,6.033-15.067,8.584-23.232,6.356c-8.205-2.063-14.955-8.76-16.95-16.856
	c-1.74-6.66-0.32-14.037,3.849-19.564c-0.282,0.101-2.185,1.911-3.784,5.474c-1.61,3.504-2.567,8.93-1.144,14.359
	c2.087,8.466,9.162,15.478,17.744,17.639c8.544,2.332,18.214-0.335,24.31-6.657C68.041,50.895,70.426,41.304,67.756,32.992"/>
<path fill="#98C13D" d="M67.666,24.946c-1.521-2.31-3.408-4.387-5.553-6.164l-0.896,1.053c2.049,1.679,3.836,3.656,5.291,5.855
	c2.859,4.322,4.375,9.49,4.324,14.641c0.033,10.38-6.82,20.371-16.625,24.209c-4.853,1.972-10.293,2.508-15.444,1.511
	c-5.15-0.976-9.978-3.497-13.716-7.126c-6.275-5.959-9.178-15.036-7.609-23.466c-0.254,0.256-1.39,3.326-1.054,8.177
	c0.26,4.791,2.564,11.366,7.69,16.261c3.925,3.811,9.008,6.466,14.421,7.489c5.419,1.047,11.138,0.488,16.237-1.591
	c10.316-4.029,17.525-14.535,17.48-25.445C72.27,34.926,70.674,29.496,67.666,24.946"/>
<path fill="#98C13D" d="M35.509,70.493L35.509,70.493c6.397,1.746,13.347,1.436,19.571-0.845
	c6.217-2.273,11.693-6.484,15.404-11.896c3.73-5.402,5.678-11.963,5.484-18.495c-0.174-6.524-2.475-12.968-6.48-18.17
	c-3.998-5.216-9.688-9.149-16.033-11.068c-0.586-0.181-1.176-0.341-1.771-0.485l-0.406,1.583c0.564,0.141,1.127,0.296,1.684,0.461
	c6.02,1.823,11.406,5.551,15.199,10.492c3.803,4.933,5.984,11.044,6.152,17.232c0.18,6.185-1.67,12.419-5.205,17.538
	c-3.516,5.13-8.709,9.123-14.611,11.279c-5.9,2.156-12.481,2.451-18.548,0.802c-10.116-2.612-18.481-10.764-21.263-20.675
	c-0.135,0.407,0.258,4.32,3.313,9.346C20.95,62.562,27.179,68.348,35.509,70.493"/>
<path fill="#98C13D" d="M82.807,28.005c-2.619-8.28-8.123-15.606-15.293-20.622c-7.18-5.013-16.051-7.664-24.854-7.36
	c-8.807,0.258-17.514,3.4-24.334,8.879c-0.209,0.163-0.404,0.323-0.596,0.485l1.417,1.663c0.185-0.152,0.374-0.309,0.561-0.461
	c6.46-5.183,14.69-8.146,23.014-8.389c8.345-0.296,16.722,2.207,23.519,6.953c6.783,4.749,11.994,11.678,14.467,19.505
	c2.508,7.803,2.387,16.424-0.432,24.134c-2.777,7.731-8.193,14.5-15.172,18.988c-11.492,7.599-27.237,8.286-39.381,1.746
	c0.258,0.506,4.419,3.757,12.136,5.419c3.833,0.793,8.504,1.102,13.498,0.332c4.979-0.754,10.252-2.628,14.959-5.685
	c7.383-4.743,13.107-11.899,16.043-20.07C85.34,45.362,85.473,36.261,82.807,28.005"/>
<path fill="#98C13D" d="M48.063,73.551c-12.125,1.586-24.795-3.864-31.889-13.653c0.017,0.496,2.05,4.643,7.498,8.899
	c2.714,2.092,6.294,4.122,10.545,5.418c4.239,1.3,9.143,1.82,14.079,1.228c7.709-0.909,15.081-4.336,20.676-9.628
	c5.617-5.258,9.455-12.337,10.688-19.876c1.279-7.521,0.068-15.454-3.547-22.221c-3.559-6.779-9.379-12.386-16.385-15.691
	c-6.973-3.355-15.062-4.381-22.681-2.924c-0.217,0.043-0.439,0.086-0.654,0.128L36.8,7.1c0.203-0.046,0.404-0.08,0.618-0.118
	c7.202-1.386,14.869-0.415,21.462,2.761c6.629,3.126,12.143,8.438,15.508,14.858c3.414,6.395,4.562,13.9,3.359,21.024
	c-1.168,7.131-4.797,13.826-10.119,18.812C62.332,69.442,55.35,72.605,48.063,73.551"/>
<path fill="#FFFFFF" d="M3.287,128.426H2.112v2.838h1.174c0.846,0,1.637-0.441,1.637-1.418
	C4.923,128.879,4.132,128.426,3.287,128.426 M3.539,132.457H2.112v4.102H0.687v-9.332h2.852c1.339,0,2.86,0.846,2.86,2.619
	C6.398,131.611,4.877,132.457,3.539,132.457"/>
<path fill="#FFFFFF" d="M13.17,128.264c-1.754,0-3.565,1.299-3.565,3.607c0,2.312,1.811,3.631,3.565,3.631
	c1.729,0,3.573-1.318,3.573-3.631C16.744,129.562,14.899,128.264,13.17,128.264 M13.17,136.729c-2.524,0-5.018-1.824-5.018-4.857
	c0-2.994,2.494-4.838,5.018-4.838c2.532,0,5.031,1.844,5.031,4.838C18.202,134.904,15.703,136.729,13.17,136.729"/>
<polygon fill="#FFFFFF" points="20.656,136.557 20.656,127.225 22.098,127.225 22.098,135.336 26.275,135.336 26.275,136.557 "/>
<path fill="#FFFFFF" d="M31.213,132.256v4.301h-1.412v-4.301l-3.627-5.031h1.575l1.903,2.629c0.282,0.398,0.623,0.91,0.891,1.318
	h0.033c0.263-0.408,0.648-0.949,0.905-1.318l1.903-2.629h1.469L31.213,132.256z"/>
<polygon fill="#FFFFFF" points="40.094,128.438 40.094,136.557 38.648,136.557 38.648,128.438 35.882,128.438 35.882,127.225 
	43.138,127.225 43.138,128.438 "/>
<polygon fill="#FFFFFF" points="45.257,136.557 45.257,127.225 50.375,127.225 50.375,128.438 46.702,128.438 46.702,131.262 
	49.778,131.262 49.778,132.475 46.702,132.475 46.702,135.336 50.895,135.336 50.895,136.557 "/>
<path fill="#FFFFFF" d="M60.348,128.877c-0.455-0.289-1.395-0.613-2.373-0.613c-1.865,0-3.822,1.182-3.822,3.625
	c0,2.412,1.914,3.611,3.822,3.611c1.129,0,2.02-0.232,2.617-0.586l-0.301,1.365c-0.596,0.305-1.262,0.449-2.484,0.449
	c-2.391,0-5.111-1.654-5.111-4.84c0-3.234,2.75-4.855,5.111-4.855c1.312,0,2.217,0.301,2.795,0.619L60.348,128.877z"/>
<polygon fill="#FFFFFF" points="69.4,136.557 69.4,132.475 64.51,132.475 64.51,136.557 63.066,136.557 63.066,127.225 
	64.51,127.225 64.51,131.262 69.4,131.262 69.4,127.225 70.842,127.225 70.842,136.557 "/>
<path fill="#FFFFFF" d="M81.738,136.762l-4.443-4.787c-0.717-0.756-1.525-1.693-2.182-2.447l-0.033,0.012
	c0.033,0.848,0.033,1.633,0.033,2.334v4.686h-1.438v-9.332h0.988l4.076,4.385c0.547,0.598,1.416,1.533,1.99,2.236l0.035-0.01
	c-0.035-0.717-0.035-1.525-0.035-2.203v-4.408h1.447v9.535H81.738z"/>
<rect x="85.221" y="127.229" fill="#FFFFFF" width="1.445" height="9.33"/>
<path fill="#FFFFFF" d="M97,128.877c-0.461-0.289-1.402-0.613-2.381-0.613c-1.857,0-3.816,1.182-3.816,3.625
	c0,2.412,1.914,3.611,3.816,3.611c1.133,0,2.021-0.232,2.619-0.586l-0.299,1.365c-0.592,0.305-1.264,0.449-2.482,0.449
	c-2.396,0-5.113-1.654-5.113-4.84c0-3.234,2.75-4.855,5.113-4.855c1.311,0,2.217,0.301,2.795,0.619L97,128.877z"/>
<path fill="#FFFFFF" d="M9.913,97.025c-3.462,0-7.037,2.566-7.037,7.127c0,4.551,3.575,7.146,7.037,7.146
	c3.399,0,7.037-2.596,7.037-7.146C16.95,99.592,13.312,97.025,9.913,97.025 M9.913,113.719c-4.988,0-9.913-3.6-9.913-9.566
	c0-5.92,4.925-9.547,9.913-9.547c4.982,0,9.908,3.627,9.908,9.547C19.821,110.119,14.895,113.719,9.913,113.719"/>
<polygon fill="#FFFFFF" points="30.821,97.377 30.821,113.375 27.977,113.375 27.977,97.377 21.965,97.377 21.965,94.973 
	36.833,94.973 36.833,97.377 "/>
<path fill="#FFFFFF" d="M46.395,101.9c-0.263-0.609-0.553-1.471-0.792-2.252h-0.059c-0.198,0.781-0.524,1.643-0.789,2.252
	l-1.849,4.494h5.337L46.395,101.9z M51.235,113.375l-2.025-4.76h-7.27l-2.028,4.76h-2.781l7.975-18.66h1.025l7.978,18.66H51.235z"/>
<path fill="#FFFFFF" d="M66.98,113.719c-5.043,0-10.264-3.314-10.264-9.537c0-6.377,5.43-9.576,10.09-9.576
	c2.58,0,4.668,0.605,6.045,1.473l-0.531,2.42c-1.377-0.869-3.229-1.473-5.193-1.473c-3.664,0-7.531,2.363-7.531,7.176
	c0,4.76,3.75,7.098,7.564,7.098c1.73,0,3.076-0.346,3.955-0.957v-3.838h-4.309v-2.24h7.01v7.467
	C72.025,113.143,69.771,113.719,66.98,113.719"/>
<path fill="#FFFFFF" d="M88.363,97.025c-3.463,0-7.037,2.566-7.037,7.127c0,4.551,3.574,7.146,7.037,7.146
	c3.406,0,7.037-2.596,7.037-7.146C95.4,99.592,91.77,97.025,88.363,97.025 M88.363,113.719c-4.99,0-9.916-3.6-9.916-9.566
	c0-5.92,4.926-9.547,9.916-9.547c4.988,0,9.916,3.627,9.916,9.547C98.279,110.119,93.352,113.719,88.363,113.719"/>
<rect x="0.256" y="120.096" fill="#FFFFFF" width="97.434" height="0.766"/>
<polygon fill="#FFFFFF" points="3.083,143.393 3.083,148.84 2.439,148.84 2.439,143.393 0.344,143.393 0.344,142.85 5.183,142.85 
	5.183,143.393 "/>
<path fill="#FFFFFF" d="M6.837,145.016c-0.711,0-1.329,0.596-1.445,1.215h2.621c0.005-0.035,0.005-0.08,0.005-0.121
	C8.018,145.611,7.62,145.016,6.837,145.016 M8.604,146.375l-0.366,0.34H5.346c-0.057,0.857,0.658,1.701,1.721,1.701
	c0.515,0,0.935-0.125,1.353-0.43l-0.171,0.664c-0.334,0.184-0.716,0.287-1.252,0.287c-1.239,0-2.283-0.912-2.283-2.223
	c0-1.367,1.06-2.221,2.098-2.221c1.179,0,1.811,0.809,1.811,1.59C8.623,146.188,8.623,146.285,8.604,146.375"/>
<polygon fill="#FFFFFF" points="15.28,148.84 12.548,145.973 12.548,148.84 11.911,148.84 11.911,142.85 12.548,142.85 
	12.548,145.73 15.207,142.85 15.958,142.85 13.223,145.82 16.072,148.84 "/>
<path fill="#FFFFFF" d="M19.85,148.84l-0.019-0.518c-0.228,0.334-0.651,0.617-1.415,0.617c-0.943,0-1.651-0.557-1.651-1.484v-2.865
	h0.596v2.809c0,0.588,0.426,1.021,1.201,1.021c0.746,0,1.234-0.434,1.234-1.021v-2.809h0.599v4.25H19.85z"/>
<path fill="#FFFFFF" d="M23.746,145.037c-0.819,0-1.529,0.561-1.529,1.723v2.08h-0.596v-4.248h0.569l0.027,0.814
	c0.187-0.518,0.737-0.877,1.502-0.877l0.125,0.508H23.746z"/>
<path fill="#FFFFFF" d="M26.695,146.76l-1.054,0.088c-0.553,0.051-0.9,0.377-0.9,0.842c0,0.42,0.363,0.74,0.824,0.74
	c0.517,0,1.13-0.432,1.13-1.098V146.76z M27.454,148.939c-0.295-0.064-0.591-0.33-0.648-0.65c-0.228,0.393-0.724,0.65-1.263,0.65
	c-0.811,0-1.385-0.557-1.385-1.25c0-0.842,0.68-1.252,1.385-1.314l1.152-0.113v-0.406c0-0.518-0.366-0.84-1.019-0.84
	c-0.404,0-0.86,0.125-1.141,0.314l-0.128-0.504c0.334-0.219,0.813-0.332,1.304-0.332c0.922,0,1.602,0.506,1.602,1.412v1.947
	c0,0.424,0.258,0.65,0.534,0.697L27.454,148.939z"/>
<path fill="#FFFFFF" d="M37.046,148.84l-0.258-3.109c-0.035-0.514-0.067-1.051-0.092-1.557h-0.024
	c-0.203,0.502-0.51,1.111-0.748,1.594l-1.551,3.139h-0.211l-1.556-3.139c-0.231-0.463-0.515-1.059-0.756-1.584h-0.017
	c-0.024,0.502-0.057,1.074-0.097,1.547l-0.25,3.109H30.91l0.482-5.99h0.412l1.681,3.365c0.271,0.537,0.553,1.123,0.792,1.68h0.021
	c0.233-0.547,0.499-1.102,0.781-1.68l1.675-3.365h0.412l0.502,5.99H37.046z"/>
<path fill="#FFFFFF" d="M41.07,146.76l-1.057,0.088c-0.556,0.051-0.9,0.377-0.9,0.842c0,0.42,0.363,0.74,0.821,0.74
	c0.518,0,1.136-0.432,1.136-1.098V146.76z M41.829,148.939c-0.295-0.064-0.594-0.33-0.651-0.65c-0.23,0.393-0.726,0.65-1.263,0.65
	c-0.81,0-1.382-0.557-1.382-1.25c0-0.842,0.675-1.252,1.382-1.314l1.155-0.113v-0.406c0-0.518-0.366-0.84-1.017-0.84
	c-0.412,0-0.862,0.125-1.149,0.314l-0.122-0.504c0.331-0.219,0.813-0.332,1.299-0.332c0.927,0,1.604,0.506,1.604,1.412v1.947
	c0,0.424,0.258,0.65,0.537,0.697L41.829,148.939z"/>
<path fill="#FFFFFF" d="M45.296,145.074h-1.423v2.715c0,0.408,0.284,0.602,0.637,0.602c0.2,0,0.374-0.025,0.499-0.086l-0.147,0.549
	c-0.081,0.037-0.225,0.051-0.398,0.051c-0.673,0-1.19-0.391-1.19-1.145v-2.686h-0.9v-0.484h0.9v-0.922l0.599-0.314v1.236h1.545
	L45.296,145.074z"/>
<path fill="#FFFFFF" d="M48.467,146.76l-1.06,0.088c-0.553,0.051-0.897,0.377-0.897,0.842c0,0.42,0.363,0.74,0.818,0.74
	c0.518,0,1.139-0.432,1.139-1.098V146.76z M49.223,148.939c-0.295-0.064-0.591-0.33-0.648-0.65c-0.225,0.393-0.729,0.65-1.263,0.65
	c-0.811,0-1.385-0.557-1.385-1.25c0-0.842,0.677-1.252,1.385-1.314l1.155-0.113v-0.406c0-0.518-0.369-0.84-1.022-0.84
	c-0.41,0-0.86,0.125-1.144,0.314l-0.128-0.504c0.337-0.219,0.816-0.332,1.302-0.332c0.932,0,1.604,0.506,1.604,1.412v1.947
	c0,0.424,0.261,0.65,0.537,0.697L49.223,148.939z"/>
<path fill="#FFFFFF" d="M52.693,145.074h-1.426v2.715c0,0.408,0.287,0.602,0.641,0.602c0.199,0,0.371-0.025,0.498-0.086
	l-0.146,0.549c-0.08,0.037-0.227,0.051-0.398,0.051c-0.672,0-1.192-0.391-1.192-1.145v-2.686h-0.903v-0.484h0.903v-0.922
	l0.599-0.314v1.236h1.549L52.693,145.074z"/>
<path fill="#FFFFFF" d="M58.764,148.84v-2.812c0-0.59-0.426-1.012-1.195-1.012c-0.75,0-1.232,0.422-1.232,1.012v2.812h-0.607v-4.25
	h0.547l0.018,0.516c0.229-0.33,0.648-0.613,1.418-0.613c0.947,0,1.652,0.553,1.652,1.486v2.861H58.764z"/>
<polygon fill="#FFFFFF" points="67.688,148.84 65.627,146.775 65.627,148.84 65.029,148.84 65.029,142.148 65.627,142.148 
	65.627,146.621 67.635,144.59 68.361,144.59 66.318,146.672 68.471,148.84 "/>
<path fill="#FFFFFF" d="M76.578,143.289c-1.334,0-2.539,1.012-2.539,2.549c0,1.539,1.205,2.553,2.539,2.553
	c1.332,0,2.545-1.014,2.545-2.553C79.123,144.301,77.91,143.289,76.578,143.289 M76.578,148.947c-1.678,0-3.189-1.24-3.189-3.109
	c0-1.85,1.512-3.088,3.189-3.088c1.684,0,3.193,1.238,3.193,3.088C79.771,147.707,78.262,148.947,76.578,148.947"/>
<path fill="#FFFFFF" d="M83.221,145.074h-1.428v2.715c0,0.408,0.289,0.602,0.645,0.602c0.201,0,0.375-0.025,0.496-0.086
	l-0.141,0.549c-0.086,0.037-0.23,0.051-0.402,0.051c-0.668,0-1.197-0.391-1.197-1.145v-2.686h-0.895v-0.484h0.895v-0.922l0.6-0.314
	v1.236h1.555L83.221,145.074z"/>
<path fill="#FFFFFF" d="M86.393,146.76l-1.057,0.088c-0.557,0.051-0.896,0.377-0.896,0.842c0,0.42,0.359,0.74,0.816,0.74
	c0.516,0,1.137-0.432,1.137-1.098V146.76z M87.148,148.939c-0.293-0.064-0.592-0.33-0.648-0.65c-0.232,0.393-0.729,0.65-1.26,0.65
	c-0.814,0-1.389-0.557-1.389-1.25c0-0.842,0.682-1.252,1.389-1.314l1.152-0.113v-0.406c0-0.518-0.369-0.84-1.021-0.84
	c-0.408,0-0.855,0.125-1.145,0.314l-0.129-0.504c0.342-0.219,0.814-0.332,1.303-0.332c0.932,0,1.607,0.506,1.607,1.412v1.947
	c0,0.424,0.258,0.65,0.533,0.697L87.148,148.939z"/>
<path fill="#FFFFFF" d="M89.914,144.988c-0.594,0-1.033,0.418-1.033,0.914c0,0.518,0.439,0.922,1.033,0.922
	c0.547,0,1.014-0.404,1.014-0.922C90.928,145.406,90.488,144.988,89.914,144.988 M90.488,148.834l-0.871-0.268
	c-0.619,0.014-1.076,0.43-1.076,0.984c0,0.492,0.5,0.975,1.373,0.975c0.848,0,1.338-0.441,1.338-0.867
	C91.252,149.25,90.967,148.982,90.488,148.834 M89.922,151.016c-1.146,0-1.922-0.629-1.922-1.465c0-0.699,0.51-1.178,1.025-1.299
	l-0.516-0.465c0-0.289,0.32-0.59,0.602-0.678c-0.434-0.201-0.797-0.643-0.797-1.207c0-0.818,0.664-1.406,1.588-1.406
	c0.225,0,0.398,0.033,0.539,0.07c0.158,0.051,0.328,0.07,0.543,0.07c0.254,0,0.494-0.07,0.656-0.152l0.131,0.49
	c-0.115,0.062-0.416,0.131-0.598,0.131c0.174,0.164,0.314,0.461,0.314,0.797c0,0.762-0.607,1.42-1.586,1.42
	c-0.477,0-0.74,0.15-0.74,0.326c0,0.039,0.182,0.234,0.389,0.303l1.115,0.371c0.738,0.244,1.158,0.631,1.158,1.336
	C91.824,150.43,91.051,151.016,89.922,151.016"/>
<path fill="#FFFFFF" d="M94.658,145.021c-0.936,0-1.666,0.701-1.666,1.695c0,1.002,0.73,1.697,1.666,1.697
	c0.922,0,1.664-0.695,1.664-1.697C96.322,145.723,95.58,145.021,94.658,145.021 M94.658,148.939c-1.287,0-2.279-0.928-2.279-2.223
	c0-1.289,0.992-2.223,2.279-2.223c1.293,0,2.279,0.934,2.279,2.223C96.938,148.012,95.951,148.939,94.658,148.939"/>
<path fill="#FFFFFF" d="M54.064,143.061c-0.205,0-0.365,0.16-0.365,0.361s0.16,0.363,0.365,0.363c0.199,0,0.367-0.162,0.367-0.363
	S54.264,143.061,54.064,143.061 M53.764,144.59h0.613v4.252h-0.613V144.59z"/>
<path fill="#FFFFFF" d="M61.025,143.061c-0.205,0-0.373,0.16-0.373,0.361s0.168,0.363,0.373,0.363c0.199,0,0.367-0.162,0.367-0.363
	S61.225,143.061,61.025,143.061 M60.719,144.59h0.615v4.252h-0.615V144.59z"/>
<path fill="#FFFFFF" d="M69.619,143.061c-0.209,0-0.377,0.16-0.377,0.361s0.168,0.363,0.377,0.363c0.197,0,0.355-0.162,0.355-0.363
	S69.816,143.061,69.619,143.061 M69.309,144.59h0.613v4.252h-0.613V144.59z"/>
</svg>
