<?xml version="1.0" encoding="utf-8"?>
<!-- Generator: Adobe Illustrator 27.0.0, SVG Export Plug-In . SVG Version: 6.00 Build 0)  -->
<svg version="1.1" xmlns="http://www.w3.org/2000/svg" xmlns:xlink="http://www.w3.org/1999/xlink" x="0px" y="0px"
	 viewBox="0 0 85 84.4" style="enable-background:new 0 0 85 84.4;" xml:space="preserve">
<style type="text/css">
	.st0{fill:#183121;}
	.st1{fill:#FFFFFF;}
</style>
<g id="Layer_2">
	<rect class="st0" width="85" height="84.4"/>
</g>
<g id="Layer_1">
	<g>
		<path class="st1" d="M30.8,49.4c3.9,1.4,9.6,2.5,16,2.7c0,0,0,0,0-0.1c-3.5-1-6.4-2.1-9-3.6c0,0,0-0.1,0-0.1
			c4.4,0.3,10.7,0.4,17.5-2c2.7-8.8,5.3-18.7,7.5-29.3c0-0.1-0.1-0.1-0.1,0c-6.1,6.2-16.8,11.4-25.6,12.9
			c-5.2-3.2-9.6-7.3-14.8-12.8c0,0-0.1,0-0.1,0C24.6,27.9,27.4,38.6,30.8,49.4z M46.9,44.9c-3.3,1.5-6.8,2.6-9.9,3.2
			c-2.8-1.7-5.4-3.8-8.2-6.7c0,0,0-0.1,0-0.1C34.6,43.7,40.8,45,46.9,44.9C46.9,44.8,46.9,44.8,46.9,44.9z M56.9,38.7
			c-2.7,2.3-6,4.2-9.3,5.8c-3.3-0.9-6.9-2.7-10.4-4.9c0,0,0-0.1,0-0.1C42.6,40.5,49.5,41,56.9,38.7C56.9,38.6,57,38.7,56.9,38.7z
			 M37.9,30.3c7.3,1.1,15.1,0.5,21.7-2.4c0,0,0.1,0,0,0.1c-3.4,3-6.8,5.5-11.1,7.5C44.6,33.9,41.1,32.3,37.9,30.3
			C37.9,30.4,37.9,30.3,37.9,30.3z M25.8,29.7c7.1,4,14.6,5.6,22,6.1c0,0,0.1,0.1,0,0.1c-3.2,1.4-6.9,2.5-11.3,3.2
			C32.3,36.3,28.4,32.9,25.8,29.7C25.8,29.7,25.8,29.7,25.8,29.7z"/>
		<g>
			<path class="st1" d="M68,64.7c-0.4,0-0.5-0.2-0.5-0.7v-2.2c0-1.2-0.6-1.8-1.6-1.8c-1.1,0-1.7,0.5-2.2,1.2l0.1,0.1
				c0.4-0.3,0.8-0.5,1.2-0.5c0.7,0,0.9,0.4,0.9,1.2v0.2c-1.1,0.2-2.4,0.5-2.4,1.9c0,0.7,0.4,1.2,1.1,1.2c0.6,0,1-0.3,1.4-0.8
				c0.1,0.4,0.5,0.7,1,0.7C67.5,65.3,67.8,65.1,68,64.7L68,64.7z M65.9,64.3c-0.1,0-0.3,0.1-0.4,0.1c-0.4,0-0.6-0.4-0.6-0.7
				c0-0.6,0.4-1,1-1.1V64.3z"/>
			<path class="st1" d="M25.7,60c-1.5,0-2.5,0.9-2.5,2.6c0,1.5,0.9,2.7,2.4,2.7c1.1,0,1.9-0.6,2.1-1.6l-0.1,0
				c-0.2,0.2-0.6,0.5-1.2,0.5c-0.9,0-1.6-0.5-1.6-2l2.9,0C27.8,61,27.1,60,25.7,60z M26.3,61.8l-1.4,0c0-0.9,0.3-1.6,0.8-1.6
				c0.4,0,0.6,0.2,0.6,1.2V61.8z"/>
			<path class="st1" d="M23.6,60l-0.3-2.2c-0.6,0-1.2,0.1-1.8,0.1h-2.5c-0.7,0-1.2,0-1.8-0.1L17,60h0.1c1.1-1.5,1.6-1.8,2-1.8l0.3,0
				V63c0,1,0,1.4-0.2,2v0h2.1v0c-0.2-0.7-0.2-1.1-0.2-2v-4.8l0.3,0c0.4,0,0.9,0.3,2,1.8H23.6z"/>
			<polygon class="st1" points="40.5,59.2 40.6,58.8 36.9,58.8 36.9,59.2 			"/>
			<path class="st1" d="M41,60.1h-1.7v0c0.1,0.2,0.2,0.6,0.2,1.2v2.4c-0.2,0.3-0.4,0.5-0.7,0.5c-0.4,0-0.6-0.3-0.6-0.7v-3.4h-1.7
				v0.1c0,0.2,0.1,0.6,0.1,1.2v2.3c0,0.9,0.5,1.6,1.3,1.6c0.9,0,1.4-0.7,1.6-1.1l0,0v0.9h1.7v0c-0.1-0.6-0.2-0.9-0.2-2V60.1z"/>
			<path class="st1" d="M49.6,60c-1.5,0-2.5,0.9-2.5,2.6c0,1.5,0.9,2.7,2.4,2.7c1.1,0,1.9-0.6,2.1-1.6l-0.1,0
				c-0.2,0.2-0.6,0.5-1.2,0.5c-0.9,0-1.6-0.5-1.6-2l2.9,0C51.7,61,51,60,49.6,60z M50.2,61.8l-1.4,0c0-0.9,0.3-1.6,0.8-1.6
				c0.4,0,0.6,0.2,0.6,1.2V61.8z"/>
			<path class="st1" d="M57.2,61.3c0-0.8-0.6-1.4-1.5-1.4c-0.9,0-1.2,0.5-1.5,0.9l0,0V60l-1.8,0.5v0c0.2,0.4,0.3,0.8,0.3,1.5v1.3
				c0,0.8,0,1.2-0.1,1.7v0h1.8v0c-0.1-0.5-0.1-0.9-0.1-1.7v-2c0.1-0.3,0.3-0.7,0.7-0.7c0.5,0,0.7,0.4,0.7,0.8v1.9
				c0,0.8,0,1.2-0.1,1.7v0h1.9v0c-0.1-0.5-0.2-0.9-0.2-1.7V61.3z"/>
			<path class="st1" d="M61.3,64.3l-1.1-0.1c-0.7-0.1-0.9-0.1-0.9-0.4c0-0.1,0-0.2,0.1-0.3c0.3,0.1,0.6,0.2,1,0.2
				c1.4,0,2.2-0.7,2.2-1.8c0-0.5-0.2-0.9-0.5-1.2l1.2,0.1h0v-1.1l-0.1,0l-1.4,0.9c-0.4-0.3-0.8-0.4-1.4-0.4c-1.3,0-2.2,0.8-2.2,1.8
				c0,0.7,0.3,1.2,0.9,1.5c-0.5,0.2-0.9,0.7-0.9,1.3c0,0.5,0.3,0.8,0.7,0.9c-0.6,0.1-1.1,0.3-1.1,0.8c0,0.7,1,1.1,2.5,1.1
				c1.6,0,2.9-0.6,2.9-1.7C63.1,64.8,62.3,64.4,61.3,64.3z M60.4,60.3c0.5,0,0.7,0.5,0.7,1.5c0,1.1-0.2,1.5-0.6,1.5
				c-0.5,0-0.6-0.5-0.6-1.5C59.7,60.8,59.9,60.3,60.4,60.3z M60.7,67.1c-1,0-1.7-0.3-1.7-1c0-0.2,0.1-0.4,0.1-0.5
				c0.2,0,0.4,0.1,0.7,0.1l0.9,0.1c0.9,0.1,1.4,0.2,1.4,0.6S61.5,67.1,60.7,67.1z"/>
			<path class="st1" d="M45.1,61.7l0.3-0.3c0.5-0.4,0.8-0.7,1.5-1.2v-0.1h-1.7l-0.4,1.4l-1.1,0.8v-4.9L42,58v0
				c0.1,0.4,0.2,0.8,0.2,1.5v4c0,0.8,0,1.1-0.1,1.5v0h1.8v0c-0.1-0.4-0.1-0.7-0.1-1.5v-0.9l1.3,2.5h2V65c-0.2-0.3-0.4-0.5-0.7-1
				L45.1,61.7z"/>
			<path class="st1" d="M33.1,57.9h-2.7v0c0.1,0.7,0.2,1.1,0.2,2V63c0,1,0,1.4-0.2,2v0h2.1v0c-0.2-0.7-0.2-1.1-0.2-2v-0.9h0.5
				c2,0,2.8-1,2.8-2.3C35.8,58.7,35.1,57.9,33.1,57.9z M32.7,61.8h-0.3v-3.6c0.1,0,0.2,0,0.3,0c0.8,0,1.3,0.7,1.3,1.7
				C33.9,60.8,33.6,61.8,32.7,61.8z"/>
		</g>
	</g>
</g>
</svg>
