<?xml version="1.0" encoding="UTF-8"?>
<svg id="Layer_1" data-name="Layer 1" xmlns="http://www.w3.org/2000/svg" version="1.1" viewBox="0 0 1968 2500">
  <defs>
    <style>
      .cls-1 {
        fill: none;
      }

      .cls-1, .cls-2 {
        stroke-width: 0px;
      }

      .cls-2 {
        fill: #fff;
      }
    </style>
  </defs>
  <g>
    <path class="cls-2" d="M1193,808.7c-2.6,82.9-43.2,164-108.5,215.1-67.9,54.7-161.4,75.8-246,54.7-84.6-19.4-158.7-80.2-194.9-159.6-37-78.5-34.4-174.6,5.3-252.2,32.6-64.4,90.8-114.6,157.8-139.3-2.6-.9-30,4.4-64.4,24.7-35.3,20.3-77.6,57.3-103.2,109.3-41.4,80.2-44.1,179.9-5.3,261.9,37,82.9,114.6,145.5,202.8,165.8,88.2,21.2,185.2,0,255.7-57.3,67.9-52.9,110.2-137.5,112.9-224l-12.3.9Z"/>
    <path class="cls-2" d="M1230.9,699.4c-3.5-13.2-8.8-26.5-15-39.7l-14.1,6.2c5.3,12.3,10.6,24.7,14.1,37.9,34.4,110.2,3.5,238.1-77.6,320.1-79.4,83.8-206.3,119-317.4,88.2-112-28.2-204.6-121.7-231.9-234.5-23.8-92.6-4.4-194.9,52.9-271.6-3.5,1.8-30,26.5-52,75.8-22,48.5-35.3,124.3-15.9,199.3,28.2,117.3,125.2,215.1,242.5,245.1,116.4,32.6,248.6-4.4,332.4-92.6,85.5-84.6,118.2-217.8,82-334.2h0Z"/>
    <path class="cls-2" d="M1230,588.3c-21.2-31.7-46.7-60.8-75.8-85.5l-12.3,15c28.2,22.9,52,51.1,72.3,81.1,38.8,60,60,132.3,59.1,203.7.9,144.6-93.5,283-227.5,336.8-66.1,27.3-140.2,34.4-210.7,21.2s-136.7-48.5-187.8-98.8c-85.5-82.9-125.2-209-104-326.2-3.5,3.5-19.4,45.8-14.1,113.7,3.5,66.1,35.3,157.8,104.9,225.7,53.8,52.9,123.4,89.9,197.5,104s152.5,7.1,222.2-22c141.1-56.4,239.8-201.9,238.9-353.6,0-76.7-22-152.5-62.6-215.1Z"/>
    <path class="cls-2" d="M790,1221.3c87.3,23.8,182.5,20.3,267.2-11.5s159.6-89.9,210.7-165.8c51.1-74.9,77.6-166.6,74.9-257.5s-33.5-180.8-88.2-252.2c-54.7-72.3-132.3-127-219.5-153.4-7.9-2.6-15.9-4.4-23.8-7.1l-5.3,22c7.9,1.8,15,4.4,22.9,6.2,82,25.6,156.1,76.7,208.1,145.5,52,68.8,82,153.4,83.8,239.8,2.6,85.5-22.9,172.8-71.4,243.4-48.5,71.4-119,127-199.3,156.9s-170.2,34.4-253.9,11.5c-138.4-36.2-252.2-149.9-291-287.4-1.8,5.3,3.5,60,45,129.6s126.1,149.9,239.8,179.9h0Z"/>
    <path class="cls-2" d="M1436.3,630.6c-36.2-115.5-111.1-216.9-209-286.6s-219.5-106.7-339.5-102.3c-119.9,3.5-238.9,47.6-332.4,123.4-2.6,1.8-5.3,4.4-7.9,7.1l19.4,22.9c2.6-1.8,5.3-4.4,7.9-6.2,88.2-72.3,201-113.7,314.8-116.4,113.7-4.4,228.4,30.9,320.9,97,92.6,66.1,164,162.2,197.5,270.7,34.4,108.5,32.6,228.4-6.2,335.1-37.9,107.6-112,201.9-207.2,263.6-156.9,105.8-372.1,115.5-537.8,24.7,3.5,7.1,60.8,52,165.8,74.9,52,11.5,116.4,15,184.3,4.4s140.2-36.2,204.6-79.4c100.5-66.1,179-165.8,219.5-278.6,40.6-113.7,42.3-239.8,5.3-354.5Z"/>
    <path class="cls-2" d="M962,1263.7c-165.8,22-338.6-53.8-435.6-189.6,0,7.1,28.2,64.4,102.3,123.4,37,29.1,85.5,57.3,143.7,74.9,58.2,18.5,125.2,25.6,192.2,16.8,104.9-12.3,206.3-60,282.2-134,76.7-73.2,129.6-171.9,146.4-276,17.6-104.9.9-215.1-48.5-308.6-48.5-94.3-127.8-171.9-223.1-217.8-95.2-46.7-205.4-60.8-309.5-40.6-2.6.9-6.2.9-8.8,1.8l5.3,25.6c2.6-.9,5.3-.9,8.8-1.8,98.8-19.4,202.8-6.2,293.6,38.8,90.8,43.2,165.8,117.3,211.6,206.3,46.7,89.1,62.6,193.1,45.8,291.8-15.9,98.8-65.2,192.2-138.4,261.9s-168.4,113.7-268,127h0ZM360.6,2034.3h-19.4v57.3h-19.4v-129.6h38.8c18.5,0,38.8,11.5,38.8,36.2.9,23.8-20.3,36.2-38.8,36.2h0ZM357.1,1977.9h-15.9v39.7h15.9c11.5,0,22-6.2,22-19.4.9-14.1-10.6-20.3-22-20.3ZM492.9,2093.4c-34.4,0-68.8-25.6-68.8-67s34.4-67,68.8-67,68.8,25.6,68.8,67c-.9,41.4-34.4,67-68.8,67ZM492.9,1975.2c-23.8,0-48.5,18.5-48.5,50.3s24.7,50.3,48.5,50.3,48.5-18.5,48.5-50.3-25.6-50.3-48.5-50.3ZM595.2,2090.7v-129.6h19.4v112.9h57.3v16.8h-76.7ZM738.9,2030.8v60h-19.4v-60l-49.4-69.7h21.2l25.6,36.2c3.5,5.3,8.8,12.3,12.3,18.5l12.3-18.5,26.5-36.2h20.3l-49.4,69.7ZM860.6,1977.9v112.9h-19.4v-112.9h-38.8v-16.8h98.8v16.8h-40.6ZM931.1,2090.7v-129.6h69.7v16.8h-50.3v39.7h42.3v16.8h-42.3v39.7h57.3v16.8h-76.7ZM1137.4,1984c-6.2-4.4-19.4-8.8-32.6-8.8-25.6,0-52,16.8-52,50.3s26.5,50.3,52,50.3,27.3-3.5,36.2-7.9l-4.4,18.5c-7.9,4.4-17.6,6.2-33.5,6.2-32.6,0-69.7-22.9-69.7-67s37.9-67,69.7-67,30,4.4,37.9,8.8l-3.5,16.8ZM1260.9,2090.7v-56.4h-67v56.4h-19.4v-129.6h19.4v56.4h67v-56.4h19.4v129.6h-19.4ZM1429.3,2093.4l-60.8-66.1c-9.7-10.6-21.2-23.8-30-34.4v97.9h-19.4v-129.6h13.2l55.5,60.8c7.9,7.9,19.4,21.2,27.3,30.9v-92.6h19.4v132.3h-5.3v.9ZM1476.9,2090.7v-129.6h19.4v129.6h-19.4ZM1638.2,1984c-6.2-4.4-19.4-8.8-32.6-8.8-25.6,0-52,16.8-52,50.3s26.5,50.3,52,50.3,27.3-3.5,36.2-7.9l-4.4,18.5c-7.9,4.4-17.6,6.2-33.5,6.2-32.6,0-69.7-22.9-69.7-67s37.9-67,69.7-67,30,4.4,37.9,8.8l-3.5,16.8ZM447.9,1773.3c-67.9,0-135.8-50.3-135.8-133.1s67-132.3,135.8-132.3,135.8,50.3,135.8,132.3-67.9,133.1-135.8,133.1ZM447.9,1541.4c-47.6,0-96.1,35.3-96.1,98.8s48.5,99.6,96.1,99.6,96.1-36.2,96.1-99.6-49.4-98.8-96.1-98.8ZM733.6,1545.8v222.2h-38.8v-222.2h-82v-33.5h202.8v33.5h-82ZM1012.2,1768.9l-27.3-66.1h-99.6l-27.3,66.1h-37.9l109.3-259.2h14.1l109.3,259.2h-40.6ZM946.1,1609.3c-3.5-8.8-7.9-20.3-10.6-30.9h-.9c-2.6,10.6-7.1,22.9-10.6,30.9l-25.6,62.6h73.2l-25.6-62.6ZM1227.4,1773.3c-68.8,0-140.2-45.8-140.2-132.3s74.1-133.1,137.5-133.1,63.5,8.8,82.9,20.3l-7.1,33.5c-18.5-12.3-44.1-20.3-71.4-20.3-50.3,0-103.2,32.6-103.2,99.6s51.1,98.8,103.2,98.8,42.3-4.4,53.8-13.2v-52.9h-57.3v-30.9h96.1v103.2c-24.7,19.4-55.5,27.3-94.3,27.3h0ZM1520.1,1773.3c-67.9,0-135.8-50.3-135.8-133.1s67-132.3,135.8-132.3,135.8,50.3,135.8,132.3c-.9,82.9-67.9,133.1-135.8,133.1ZM1520.1,1541.4c-47.6,0-96.1,35.3-96.1,98.8s48.5,99.6,96.1,99.6,96.1-36.2,96.1-99.6-49.4-98.8-96.1-98.8ZM315.7,1862.4h1331.4v10.6H315.7v-10.6ZM354.5,2185.9v75.8h-8.8v-75.8h-28.2v-7.9h66.1v7.9h-29.1ZM430.3,2227.4l-5.3,4.4h-39.7c-.9,12.3,8.8,23.8,23.8,23.8s13.2-1.8,18.5-6.2l-2.6,8.8c-4.4,2.6-9.7,4.4-16.8,4.4-16.8,0-30.9-12.3-30.9-30.9s14.1-30.9,28.2-30.9,24.7,11.5,24.7,22v4.4ZM405.6,2208c-9.7,0-18.5,7.9-19.4,16.8h36.2v-1.8c0-6.2-6.2-15-16.8-15h0ZM521.1,2261.8l-37-39.7v39.7h-8.8v-83.8h8.8v39.7l36.2-39.7h10.6l-37,41.4,38.8,42.3h-11.5ZM583.7,2261.8v-7.1c-3.5,4.4-8.8,8.8-19.4,8.8s-22.9-7.9-22.9-20.3v-39.7h7.9v38.8c0,7.9,6.2,14.1,16.8,14.1s16.8-6.2,16.8-14.1v-38.8h7.9v59.1h-7.1v-.9ZM636.6,2208.9c-11.5,0-21.2,7.9-21.2,23.8v29.1h-7.9v-59.1h7.9v11.5c2.6-7.1,9.7-12.3,20.3-12.3l1.8,7.1h-.9ZM687.7,2262.7c-4.4-.9-7.9-4.4-8.8-8.8-3.5,5.3-9.7,8.8-17.6,8.8-11.5,0-18.5-7.9-18.5-17.6s9.7-17.6,18.5-18.5l15.9-1.8v-5.3c0-7.1-5.3-11.5-14.1-11.5s-11.5,1.8-15.9,4.4l-1.8-7.1c4.4-2.6,11.5-4.4,17.6-4.4,12.3,0,22,7.1,22,19.4v27.3c0,6.2,3.5,8.8,7.1,9.7l-4.4,5.3ZM677.2,2232.7l-14.1.9c-7.9.9-12.3,5.3-12.3,11.5s5.3,10.6,11.5,10.6,15.9-6.2,15.9-15v-7.9h-.9ZM819.1,2261.8l-3.5-43.2c-.9-7.1-.9-15-.9-22-2.6,7.1-7.1,15-10.6,22l-21.2,44.1h-2.6l-21.2-44.1c-3.5-6.2-7.1-15-10.6-22,0,7.1-.9,15-.9,21.2l-3.5,43.2h-7.9l7.1-82.9h5.3l22.9,46.7c3.5,7.1,7.9,15.9,10.6,22.9,3.5-7.9,7.1-15,10.6-22.9l22.9-46.7h4.4l7.1,82.9h-7.9v.9ZM884.4,2262.7c-4.4-.9-7.9-4.4-8.8-8.8-3.5,5.3-9.7,8.8-17.6,8.8-11.5,0-18.5-7.9-18.5-17.6s9.7-17.6,18.5-18.5l15.9-1.8v-5.3c0-7.1-5.3-11.5-14.1-11.5s-11.5,1.8-15.9,4.4l-1.8-7.1c4.4-2.6,11.5-4.4,17.6-4.4,12.3,0,22,7.1,22,19.4v27.3c0,6.2,3.5,8.8,7.1,9.7l-4.4,5.3ZM873.8,2232.7l-14.1.9c-7.9.9-12.3,5.3-12.3,11.5s5.3,10.6,11.5,10.6,15.9-6.2,15.9-15v-7.9h-.9ZM931.1,2208.9h-19.4v37.9c0,6.2,3.5,8.8,8.8,8.8s5.3,0,7.1-.9l-1.8,7.9c-.9.9-2.6.9-5.3.9-8.8,0-15.9-5.3-15.9-15.9v-37h-12.3v-7.1h12.3v-13.2l7.9-4.4v16.8h21.2l-2.6,6.2ZM984.9,2262.7c-4.4-.9-7.9-4.4-8.8-8.8-3.5,5.3-9.7,8.8-17.6,8.8-11.5,0-18.5-7.9-18.5-17.6s8.8-17.6,18.5-18.5l15.9-1.8v-5.3c0-7.1-5.3-11.5-14.1-11.5s-11.5,1.8-15.9,4.4l-1.8-7.1c4.4-2.6,11.5-4.4,17.6-4.4,12.3,0,22,7.1,22,19.4v27.3c0,6.2,3.5,8.8,7.1,9.7l-4.4,5.3ZM975.2,2232.7l-14.1.9c-7.9.9-12.3,5.3-12.3,11.5s5.3,10.6,11.5,10.6,15.9-6.2,15.9-15v-7.9h-.9ZM1032.5,2208.9h-19.4v37.9c0,6.2,3.5,8.8,8.8,8.8s5.3,0,7.1-.9l-1.8,7.9c-.9.9-3.5.9-5.3.9-8.8,0-15.9-5.3-15.9-15.9v-37h-12.3v-7.1h12.3v-13.2l7.9-4.4v16.8h21.2l-2.6,6.2ZM1115.4,2261.8v-39.7c0-7.9-6.2-14.1-16.8-14.1s-16.8,6.2-16.8,14.1v38.8h-7.9v-59.1h7.1v7.1c3.5-4.4,8.8-8.8,19.4-8.8s22.9,7.9,22.9,20.3v39.7h-7.9v1.8ZM1237.1,2261.8l-28.2-29.1v29.1h-7.9v-92.6h7.9v61.7l27.3-28.2h9.7l-28.2,29.1,29.1,30h-9.7ZM1358.7,2262.7c-22.9,0-43.2-17.6-43.2-43.2s20.3-43.2,43.2-43.2,43.2,17.6,43.2,43.2c.9,26.5-20.3,43.2-43.2,43.2ZM1358.7,2184.2c-18.5,0-34.4,14.1-34.4,35.3s16.8,35.3,34.4,35.3,34.4-14.1,34.4-35.3c.9-21.2-15.9-35.3-34.4-35.3ZM1449.5,2208.9h-19.4v37.9c0,6.2,3.5,8.8,8.8,8.8s5.3,0,7.1-.9l-1.8,7.9c-.9.9-3.5.9-5.3.9-8.8,0-16.8-5.3-16.8-15.9v-37h-12.3v-7.1h12.3v-13.2l7.9-4.4v16.8h21.2l-1.8,6.2ZM1503.3,2262.7c-4.4-.9-7.9-4.4-8.8-8.8-3.5,5.3-9.7,8.8-17.6,8.8-11.5,0-18.5-7.9-18.5-17.6s9.7-17.6,18.5-18.5l15.9-1.8v-5.3c0-7.1-5.3-11.5-14.1-11.5s-11.5,1.8-15.9,4.4l-1.8-7.1c4.4-2.6,11.5-4.4,17.6-4.4,12.3,0,22,7.1,22,19.4v27.3c0,6.2,3.5,8.8,7.1,9.7l-4.4,5.3ZM1492.8,2232.7l-14.1.9c-7.9.9-12.3,5.3-12.3,11.5s5.3,10.6,11.5,10.6,15.9-6.2,15.9-15v-7.9h-.9ZM1541.2,2291.8c-15.9,0-26.5-8.8-26.5-20.3s7.1-16.8,14.1-17.6l-7.1-6.2c0-4.4,4.4-7.9,7.9-9.7-6.2-2.6-10.6-8.8-10.6-16.8,0-11.5,8.8-19.4,22-19.4s5.3.9,7.1.9c1.8.9,4.4.9,7.1.9s7.1-.9,8.8-1.8l1.8,7.1c-1.8.9-5.3,1.8-7.9,1.8,2.6,2.6,4.4,6.2,4.4,11.5,0,10.6-7.9,19.4-22,19.4s-10.6,1.8-10.6,4.4,2.6,3.5,5.3,4.4l15,5.3c9.7,3.5,15.9,8.8,15.9,18.5.9,9.7-9.7,17.6-24.7,17.6h0ZM1549.2,2261.8l-11.5-3.5c-8.8,0-15,6.2-15,13.2s7.1,13.2,18.5,13.2,18.5-6.2,18.5-12.3-4.4-8.8-10.6-10.6h0ZM1541.2,2208c-7.9,0-14.1,6.2-14.1,12.3s6.2,13.2,14.1,13.2,14.1-5.3,14.1-13.2-6.2-12.3-14.1-12.3ZM1605.6,2262.7c-17.6,0-30.9-13.2-30.9-30.9s13.2-30.9,30.9-30.9,30.9,13.2,30.9,30.9c.9,18.5-13.2,30.9-30.9,30.9ZM1605.6,2208.9c-13.2,0-22.9,9.7-22.9,23.8s9.7,23.8,22.9,23.8,22.9-9.7,22.9-23.8-9.7-23.8-22.9-23.8ZM1047.5,2261.8v-59.1h7.9v59.1h-7.9ZM1051,2181.5c-2.6,0-5.3,2.6-5.3,5.3s1.8,5.3,5.3,5.3,5.3-2.6,5.3-5.3-2.6-5.3-5.3-5.3ZM1141.8,2261.8v-59.1h7.9v59.1h-7.9ZM1146.2,2181.5c-2.6,0-5.3,2.6-5.3,5.3s2.6,5.3,5.3,5.3,5.3-2.6,5.3-5.3-2.6-5.3-5.3-5.3ZM1260,2261.8v-59.1h8.8v59.1h-8.8ZM1263.5,2181.5c-2.6,0-5.3,2.6-5.3,5.3s2.6,5.3,5.3,5.3,5.3-2.6,5.3-5.3-2.6-5.3-5.3-5.3Z"/>
  </g>
  <g>
    <path class="cls-1" d="M984,158c-39.7,0-79.4-29.1-79.4-77.6S944.3,2.8,984,2.8s79.4,29.1,79.4,77.6-39.7,77.6-79.4,77.6ZM984,23.1c-27.3,0-56.4,21.2-56.4,58.2s28.2,58.2,56.4,58.2,56.4-21.2,56.4-58.2-29.1-58.2-56.4-58.2Z"/>
    <path class="cls-1" d="M984,235.6c-39.7,0-79.4-29.1-79.4-77.6s39.7-77.6,79.4-77.6,79.4,29.1,79.4,77.6-39.7,77.6-79.4,77.6ZM984,100.7c-27.3,0-56.4,21.2-56.4,58.2s28.2,58.2,56.4,58.2,56.4-21.2,56.4-58.2-29.1-58.2-56.4-58.2ZM984,2422.2c-39.7,0-79.4-29.1-79.4-77.6s39.7-77.6,79.4-77.6,79.4,29.1,79.4,77.6-39.7,77.6-79.4,77.6ZM984,2286.5c-27.3,0-56.4,21.2-56.4,58.2s28.2,58.2,56.4,58.2,56.4-21.2,56.4-58.2-29.1-58.2-56.4-58.2Z"/>
    <path class="cls-1" d="M984,2499.8c-39.7,0-79.4-29.1-79.4-77.6s39.7-77.6,79.4-77.6,79.4,29.1,79.4,77.6-39.7,77.6-79.4,77.6ZM984,2364.1c-27.3,0-56.4,21.2-56.4,58.2s28.2,58.2,56.4,58.2,56.4-21.2,56.4-58.2-29.1-58.2-56.4-58.2ZM155.2,1656.9c0,39.7-29.1,79.4-77.6,79.4S0,1696.6,0,1656.9s29.1-79.4,77.6-79.4c48.5.9,77.6,39.7,77.6,79.4ZM19.4,1656.9c0,27.3,21.2,56.4,58.2,56.4s58.2-28.2,58.2-56.4-21.2-56.4-58.2-56.4-58.2,29.1-58.2,56.4Z"/>
    <path class="cls-1" d="M309.5,1656.9c0,39.7-29.1,79.4-77.6,79.4s-77.6-39.7-77.6-79.4,29.1-79.4,77.6-79.4c48.5.9,77.6,39.7,77.6,79.4ZM174.6,1656.9c0,27.3,21.2,56.4,58.2,56.4s58.2-28.2,58.2-56.4-21.2-56.4-58.2-56.4-58.2,29.1-58.2,56.4ZM1810.2,1656.9c0,39.7-29.1,79.4-77.6,79.4s-77.6-39.7-77.6-79.4,29.1-79.4,77.6-79.4c48.5.9,77.6,39.7,77.6,79.4ZM1675.3,1656.9c0,27.3,21.2,56.4,58.2,56.4s58.2-28.2,58.2-56.4-21.2-56.4-58.2-56.4-58.2,29.1-58.2,56.4Z"/>
    <path class="cls-1" d="M1965.4,1656.9c0,39.7-29.1,79.4-77.6,79.4s-77.6-39.7-77.6-79.4,29.1-79.4,77.6-79.4c48.5.9,77.6,39.7,77.6,79.4ZM1829.6,1656.9c0,27.3,21.2,56.4,58.2,56.4s58.2-28.2,58.2-56.4-21.2-56.4-58.2-56.4-58.2,29.1-58.2,56.4Z"/>
  </g>
</svg>