<?xml version="1.0" encoding="UTF-8"?>
<svg xmlns="http://www.w3.org/2000/svg" version="1.1" viewBox="0 0 1968 1968.5">
  <defs>
    <style>
      .cls-1 {
        fill: #fff;
      }

      .cls-2 {
        fill: none;
      }

      .cls-3 {
        fill: #221f20;
      }
    </style>
  </defs>
  <!-- Generator: Adobe Illustrator 28.6.0, SVG Export Plug-In . SVG Version: 1.2.0 Build 709)  -->
  <g>
    <g id="Layer_1">
      <path class="cls-3" d="M1968,1968.5H0V0h1968"/>
      <g>
        <path class="cls-1" d="M1346.8,1005.4c-4.2,131.6-68.6,260.4-172.2,341.6-107.8,86.8-256.2,120.4-390.6,86.8-134.4-30.8-252-127.4-309.4-253.4-58.8-124.6-54.6-277.2,8.4-400.4,51.8-102.2,144.2-182,250.6-221.2-4.2-1.4-47.6,7-102.2,39.2-56,32.2-123.2,91-163.8,173.6-65.8,127.4-70,285.6-8.4,415.8,58.8,131.6,182,231,322,263.2,140,33.6,294,0,406-91,107.8-84,175-218.4,179.2-355.6l-19.6,1.4Z"/>
        <path class="cls-1" d="M1407,831.8c-5.6-21-14-42-23.8-63l-22.4,9.8c8.4,19.6,16.8,39.2,22.4,60.2,54.6,175,5.6,378-123.2,508.2-126,133-327.6,189-504,140-177.8-44.8-324.8-193.2-368.2-372.4-37.8-147-7-309.4,84-431.2-5.6,2.8-47.6,42-82.6,120.4-35,77-56,197.4-25.2,316.4,44.8,186.2,198.8,341.6,385,389.2,184.8,51.8,394.8-7,527.8-147,135.8-134.4,187.6-345.8,130.2-530.6h0Z"/>
        <path class="cls-1" d="M1405.6,655.5c-33.6-50.4-74.2-96.6-120.4-135.8l-19.6,23.8c44.8,36.4,82.6,81.2,114.8,128.8,61.6,95.2,95.2,210,93.8,323.4,1.4,229.6-148.4,449.4-361.2,534.7-105,43.4-222.6,54.6-334.6,33.6-112-21-217-77-298.2-156.8-135.8-131.6-198.8-331.8-165.2-518-5.6,5.6-30.8,72.8-22.4,180.6,5.6,105,56,250.6,166.6,358.4,85.4,84,196,142.8,313.6,165.2,117.6,22.4,242.2,11.2,352.8-35,224-89.6,380.8-320.6,379.4-561.3,0-121.8-35-242.2-99.4-341.6Z"/>
        <path class="cls-1" d="M707.1,1660.6c138.6,37.8,289.8,32.2,424.2-18.2,134.4-50.4,253.4-142.8,334.6-263.2,81.2-119,123.2-264.6,119-408.8-4.2-144.2-53.2-287-140-400.4-86.8-114.8-210-201.6-348.6-243.6-12.6-4.2-25.2-7-37.8-11.2l-8.4,35c12.6,2.8,23.8,7,36.4,9.8,130.2,40.6,247.8,121.8,330.4,231,82.6,109.2,130.2,243.6,133,380.8,4.2,135.8-36.4,274.4-113.4,386.4-77,113.4-189,201.6-316.4,249.2-127.4,47.6-270.2,54.6-403.2,18.2-219.8-57.4-400.4-238-462-456.4-2.8,8.4,5.6,95.2,71.4,205.8,65.8,110.6,200.2,238,380.8,285.6h0Z"/>
        <path class="cls-1" d="M1733.2,722.7c-57.4-183.4-176.4-344.4-331.8-455-155.4-110.6-348.6-169.4-538.9-162.4-190.4,5.6-379.4,75.6-527.8,196-4.2,2.8-8.4,7-12.6,11.2l30.8,36.4c4.2-2.8,8.4-7,12.6-9.8,140-114.8,319.2-180.6,499.8-184.8,180.6-7,362.6,49,509.6,154,147,105,260.4,257.6,313.6,429.8,54.6,172.2,51.8,362.6-9.8,531.9-60.2,170.8-177.8,320.6-329,418.6-249.2,168-590.7,183.4-853.9,39.2,5.6,11.2,96.6,82.6,263.2,119,82.6,18.2,184.8,23.8,292.6,7,107.8-16.8,222.6-57.4,324.8-126,159.6-105,284.2-263.2,348.6-442.4,64.4-180.6,67.2-380.8,8.4-562.7Z"/>
        <path class="cls-1" d="M980,1727.8c-263.2,35-537.5-85.4-691.5-301,0,11.2,44.8,102.2,162.4,196,58.8,46.2,135.8,91,228.2,119,92.4,29.4,198.8,40.6,305.2,26.6,166.6-19.6,327.6-95.2,448-212.8,121.8-116.2,205.8-273,232.4-438.2,28-166.6,1.4-341.6-77-490-77-149.8-203-273-354.2-345.8-151.2-74.2-326.2-96.6-491.4-64.4-4.2,1.4-9.8,1.4-14,2.8l8.4,40.6c4.2-1.4,8.4-1.4,14-2.8,156.8-30.8,322-9.8,466.2,61.6,144.2,68.6,263.2,186.2,336,327.6,74.2,141.4,99.4,306.6,72.8,463.4-25.2,156.8-103.6,305.2-219.8,415.8-116.2,110.6-267.4,180.6-425.6,201.6h0Z"/>
      </g>
      <g>
        <path class="cls-2" d="M982.7,157.4c-39.7,0-79.4-29.1-79.4-77.6S943,2.2,982.7,2.2s79.4,29.1,79.4,77.6-39.7,77.6-79.4,77.6ZM982.7,22.5c-27.3,0-56.4,21.2-56.4,58.2s28.2,58.2,56.4,58.2,56.4-21.2,56.4-58.2-29.1-58.2-56.4-58.2Z"/>
        <path class="cls-2" d="M982.7,391c-39.7,0-79.4-185.1-79.4-233.6s39.7-77.6,79.4-77.6,79.4,29.1,79.4,77.6-39.7,233.6-79.4,233.6ZM982.7,100.1c-27.3,0-56.4,21.2-56.4,58.2s28.2,214.2,56.4,214.2,56.4-177.2,56.4-214.2-29.1-58.2-56.4-58.2Z"/>
      </g>
    </g>
  </g>
</svg>