<svg viewBox="0 0 2500 1148" xml:space="preserve" xmlns="http://www.w3.org/2000/svg"><path fill="#FFF" d="M667.9 582.7c-2 56.3-29.2 111.4-73.7 146.2-46.2 37.2-109.7 51.4-167.2 37.2-57.9-13.4-108.1-54.7-132.4-108.5-25.1-53.5-23.9-118.6 3.6-171.3 22.3-43.7 61.6-78.2 107.7-94.8-2-.4-20.2 2.8-44.1 16.6-23.9 13.4-52.6 39.3-70.5 74.5-28.3 54.7-30 122.3-3.6 177.8 25.5 56.3 77.7 98.8 137.7 112.6 59.9 14.6 125.9 0 173.7-38.9 46.2-36.4 74.5-93.5 76.5-151.9l-7.7.5z"/><path fill="#FFF" d="M693.8 509c-2.8-9.3-6.1-18.2-9.7-27.1l-9.3 4c3.6 8.5 6.9 17 9.3 25.9 23.5 74.9 2.4 161.6-52.6 217.9-54.3 57.1-140.1 81-215.8 59.9-76.1-19.4-138.9-82.6-157.5-159.1-16.2-62.8-2.8-132.8 35.6-185.1-2.4.8-20.2 18.2-35.2 51.8-15 33.2-23.9 84.2-10.5 135.7 19.4 80.2 85 146.2 164.8 166.8 79.4 21.9 169.3-3.2 226-62.8 57.3-58.6 79.6-149.3 54.9-227.9z"/><path fill="#FFF" d="M693 432.9c-14.2-21.9-31.6-41.3-51.4-58.3l-8.1 9.7c19 15.8 35.6 34.4 49 55.5 26.7 40.9 40.9 89.9 40.1 138.5.4 98-63.2 192.3-154.3 228.8-44.9 18.6-95.6 23.5-143.3 14.2S332.2 788 297.4 754c-58.3-56.3-85.4-142.1-70.9-221.9-2.4 2.4-13 31.6-9.7 77.3 2.4 45.4 23.9 107.3 71.3 153.5 36.4 36 83.8 61.1 134 70.9s103.3 4.5 150.6-15c96-38.1 162.8-137.3 162.4-240.5.4-51.1-14.2-102.5-42.1-145.4z"/><path fill="#FFF" d="M394.2 863.3c59.5 16.6 123.9 13.4 181.8-8.1s108.5-61.1 143.3-112.6c34.8-51 52.6-113 51-174.9-1.6-61.5-23-122.7-60.3-171.7-37.3-49.4-89.9-86.3-149-104.5-5.3-1.6-10.9-3.2-16.6-4.9l-3.6 15c5.3 1.2 10.5 2.8 15.8 4.5 55.9 17 106.1 52.2 141.3 99.2 35.2 46.6 55.5 104.5 57.1 162.8s-15.4 117.4-48.2 165.6c-32.8 48.6-81 86.3-135.7 106.5s-115.8 23.1-172.5 7.7C304.7 823.2 226.9 746.3 201 652.8c-1.2 3.6 2.4 40.9 30.8 88.3 27.1 47.3 85 102 162.4 122.2z"/><path fill="#FFF" d="M833.5 466.5c-24.3-78.2-75.3-147.4-142.1-194.8s-149-72.5-230.8-69.6c-81.8 2.4-162.8 32-226 83.8-2 1.6-3.6 2.8-5.7 4.5l13.4 15.8c1.6-1.6 3.6-2.8 5.3-4.5 59.9-49 136.5-76.9 213.8-79.4 77.3-2.8 155.5 21.1 218.3 65.6 63.2 44.9 111.4 110.1 134.4 184.2 23.5 73.7 22.3 155.1-4 228-26 72.9-76.2 136.9-141 179.4-106.9 71.7-253.1 78.2-365.7 16.6 2.4 4.9 41.3 35.6 113 51 35.6 7.7 79 10.5 125.1 3.2 46.2-6.9 95.2-24.7 138.9-53.9 68.4-44.9 121.9-112.6 149-189.5 27.6-76.4 28.8-162.3 4.1-240.4z"/><path fill="#FFF" d="M510.8 892.1c-112.6 15-230.4-36.4-296.4-129.2 0 4.9 19 43.7 69.6 84.2 25.1 19.8 58.3 38.9 98 51 39.3 12.1 85 17 130.8 11.7 71.7-8.5 140.1-40.9 191.9-91.1C757 769 792.6 702.2 804 630.9c11.7-70.9.4-146.2-32.8-209.8-33.2-64-87.1-117-152.3-148.2-64.8-31.6-140.1-41.3-210.6-27.5l-6.1 1.2 3.6 17.4c2-.4 3.6-.8 5.7-1.2 66.8-13 138.1-4 199.2 25.9 61.6 29.6 112.6 79.8 144.2 140.5 31.6 60.3 42.5 131.2 31.2 198.8-10.9 67.6-44.5 130.8-93.9 177.8-49 47.8-113.8 77.4-181.4 86.3zm485.9-169.3h-19.8v57.5H957V649.5h39.3c18.6 0 39.3 11.7 39.3 36.8.8 24.4-20.3 36.5-38.9 36.5zm-3.2-56.7h-16.2v39.7h16.2c11.7 0 22.7-6.1 22.7-19.8-.5-13.4-11-19.9-22.7-19.9zm136 116.6c-34.8 0-69.2-25.5-69.2-68 0-42.1 34.4-68 69.2-68s69.2 25.9 69.2 68c.1 42.1-34.3 68-69.2 68zm0-119c-24.3 0-49 18.2-49 50.6s25.1 50.6 49 50.6 49-18.2 49-50.6c.4-32-25.1-50.6-49-50.6zm103.3 116.6V649.5h19.8v113.8h57.5v17h-77.3zm145.4-60.3v60.3h-19.4V720l-49.8-70.5h21.9l26.3 36.8c4 5.7 8.5 12.6 12.1 18.6h.4c3.6-5.7 8.9-13.4 12.6-18.6l26.3-36.8h20.2l-50.6 70.5zm122.3-53.5v113.8h-19.8V666.5h-38.1v-17h100v17h-42.1zm71.2 113.8V649.5h70.5v17h-50.6v39.7h42.5v17h-42.5v40.1h57.9v17h-77.8zm208.2-107.7c-6.5-4-19.4-8.5-32.8-8.5-25.5 0-52.6 16.6-52.6 51 0 34 26.3 50.6 52.6 50.6 15.4 0 27.9-3.2 36-8.1l-4 19c-8.1 4.5-17.4 6.5-34.4 6.5-32.8 0-70.5-23.1-70.5-67.6 0-45.4 38.1-68 70.5-68 18.2 0 30.4 4 38.5 8.5l-3.3 16.6zm124.7 107.7v-57.1H1837v57.1h-19.8V649.5h19.8v56.7h67.6v-56.7h19.8v130.8h-19.8zm170.1 2.9-61.1-66.8c-9.7-10.5-21.1-23.9-30-34.4h-.4c.4 11.7.4 23.1.4 32.8v65.6h-19.8V649.5h13.8l56.3 61.6c7.7 8.5 19.4 21.5 27.5 31.2l.4-.4c-.4-10.1-.4-21.5-.4-30.8v-62h19.8v133.6h-6.5v.5zm47.7-2.9V649.5h19.8v130.8h-19.8zm162.4-107.7c-6.5-4-19.4-8.5-32.8-8.5-25.5 0-52.6 16.6-52.6 51 0 34 26.3 50.6 52.6 50.6 15.4 0 27.9-3.2 36-8.1l-4 19c-8.1 4.5-17.4 6.5-34.4 6.5-33.2 0-70.5-23.1-70.5-67.6 0-45.4 38.1-68 70.5-68 18.2 0 30.4 4 38.5 8.5l-3.3 16.6zM1084.6 467.7c-68.8 0-136.5-50.6-136.5-134 0-83 68-133.6 136.5-133.6 68.8 0 136.5 51 136.5 133.6-.1 83.4-67.7 134-136.5 134zm0-234.1c-47.8 0-97.2 36-97.2 100s49.4 100 97.2 100c47 0 97.2-36.4 97.2-100 0-63.9-50.2-100-97.2-100zm288.3 4.9v224.3h-39.3V238.5h-83v-33.6h204.9v33.6h-82.6zm281.4 224.3-27.9-66.8H1526l-27.9 66.8h-38.5l109.7-261.6h14.2l110.1 261.6h-39.3zm-66.8-160.7c-3.6-8.5-7.7-20.7-10.9-31.6h-.8c-2.8 10.9-7.3 23.1-10.9 31.6l-25.5 63.2h73.7l-25.6-63.2zM1871 467.7c-69.6 0-141.3-46.6-141.3-133.6 0-89.5 74.9-134 138.9-134 35.6 0 64.4 8.5 83.4 20.7l-7.3 34c-19-12.1-44.5-20.7-71.7-20.7-50.6 0-103.7 33.2-103.7 100.8 0 66.8 51.8 99.6 104.5 99.6 23.9 0 42.5-4.9 54.7-13.4v-54.3H1869v-31.6h96.8v104.9c-25.2 19.5-56.4 27.6-94.8 27.6zm294.8 0c-68.8 0-136.5-50.6-136.5-134 0-83 68-133.6 136.5-133.6 68.8 0 136.5 51 136.5 133.6.3 83.4-67.7 134-136.5 134zm0-234.1c-47.8 0-96.8 36-96.8 100s49.4 100 96.8 100c47 0 97.2-36.4 97.2-100 0-63.9-50.3-100-97.2-100zm-1214 319.5h1342.8v10.5H951.8v-10.5zm38.8 313.1v76.5h-8.9v-76.5H953v-7.7h66.8v7.7h-29.2zm76.2 41.7-4.9 4.9h-40.1c-.8 12.1 8.9 23.9 23.9 23.9 7.3 0 13-1.6 18.6-6.1l-2.4 9.3c-4.5 2.4-9.7 4-17.4 4-17 0-31.6-13-31.6-31.2 0-19 14.6-31.2 28.8-31.2 16.2 0 25.1 11.3 25.1 22.3v4.1zm-24.7-19.1c-9.7 0-18.2 8.5-19.8 17h36v-1.6c.4-6.9-5.3-15.4-16.2-15.4zm116.6 53.9-37.7-40.1v40.1h-8.9v-84.2h8.9V899l36.4-40.5h10.5l-37.7 41.7 39.3 42.5h-10.8zm62.8 0-.4-7.3c-3.2 4.5-8.9 8.5-19.4 8.5-13 0-22.7-7.7-22.7-20.7v-40.1h8.1v39.3c0 8.1 5.7 14.2 16.6 14.2 10.1 0 17-6.1 17-14.2v-39.3h8.5v59.5h-7.7zm53.8-53.5c-11.3 0-21.1 7.7-21.1 24.3v29.2h-8.1v-59.5h8.1l.4 11.3c2.4-7.3 10.1-12.1 20.7-12.1l1.6 7.3c-.8-.5-1.2-.5-1.6-.5zm51 54.7c-4-.8-8.1-4.5-8.9-8.9-3.2 5.7-10.1 8.9-17.4 8.9-11.3 0-19-7.7-19-17.4 0-11.7 9.3-17.4 19-18.6l15.8-1.6v-5.7c0-7.3-5.3-11.7-14.2-11.7-5.7 0-11.7 2-15.8 4.5l-1.6-6.9c4.5-3.2 11.3-4.9 17.8-4.9 12.6 0 22.3 7.3 22.3 19.8v27.1c0 6.1 3.6 8.9 7.3 9.7l-5.3 5.7zm-10.5-30.4-14.6 1.2c-7.7.8-12.6 5.3-12.6 11.7 0 6.1 4.9 10.5 11.3 10.5 7.3 0 15.8-6.1 15.8-15.4l.1-8zm142.9 29.2-3.6-43.7c-.4-7.3-1.2-14.6-1.2-21.9h-.4c-2.8 6.9-6.9 15.4-10.5 22.3l-21.5 44.1h-2.8l-21.5-44.1c-3.2-6.5-7.3-15-10.5-22.3h-.4c-.4 6.9-.8 15-1.2 21.9l-3.6 43.7h-8.1l6.9-84.2h5.7l23.1 47.4c3.6 7.3 7.7 15.8 10.9 23.5h.4c3.2-7.7 6.9-15.4 10.9-23.5l23.1-47.4h5.7l6.9 84.2h-8.3zm65.6 1.2c-4-.8-8.1-4.5-8.9-8.9-3.2 5.7-10.1 8.9-17.4 8.9-11.3 0-19-7.7-19-17.4 0-11.7 9.3-17.4 19-18.6l15.8-1.6v-5.7c0-7.3-5.3-11.7-14.2-11.7-5.7 0-11.7 2-15.8 4.5l-1.6-6.9c4.5-3.2 11.3-4.9 17.8-4.9 13 0 22.3 7.3 22.3 19.8v27.1c0 6.1 3.6 8.9 7.3 9.7l-5.3 5.7zm-10.1-30.4-14.6 1.2c-7.7.8-12.6 5.3-12.6 11.7 0 6.1 4.9 10.5 11.3 10.5 7.3 0 15.8-6.1 15.8-15.4l.1-8zm57.9-23.4h-19.4v38.1c0 5.7 4 8.5 8.9 8.5 2.8 0 5.3-.4 6.9-1.2l-2 7.7c-1.2.4-3.2.8-5.7.8-9.3 0-16.2-5.7-16.2-16.2v-37.7H1532v-6.9h12.6v-13l8.1-4.5v17.4h21.5l-2.1 7zm54.3 53.8c-4-.8-8.1-4.5-8.9-8.9-3.2 5.7-10.1 8.9-17.4 8.9-11.3 0-19-7.7-19-17.4 0-11.7 9.3-17.4 19-18.6l15.8-1.6v-5.7c0-7.3-5.3-11.7-14.2-11.7-5.7 0-11.7 2-15.8 4.5l-1.6-6.9c4.9-3.2 11.3-4.9 17.8-4.9 13 0 22.3 7.3 22.3 19.8v27.1c0 6.1 3.6 8.9 7.3 9.7l-5.3 5.7zm-10.5-30.4-14.6 1.2c-7.7.8-12.1 5.3-12.1 11.7 0 6.1 4.9 10.5 11.3 10.5 7.3 0 15.8-6.1 15.8-15.4v-8.1h-.4zm58.3-23.4h-19.4v38.1c0 5.7 4 8.5 8.9 8.5 2.8 0 5.3-.4 6.9-1.2l-2 7.7c-1.2.4-3.2.8-5.7.8-9.3 0-16.6-5.7-16.6-16.2v-37.7h-12.6v-6.9h12.6v-13l8.1-4.5v17.4h21.5l-1.7 7zm83.8 52.6v-39.3c0-8.1-5.7-14.2-16.6-14.2-10.1 0-17 6.1-17 14.2v39.3h-8.5v-59.5h7.7l.4 7.3c3.2-4.5 8.9-8.5 19.4-8.5 13 0 22.7 7.7 22.7 20.7v40.1h-8.1zm122.7 0-28.3-29.2v29.2h-8.1v-93.9h8.1v62.8l27.5-28.3h10.1l-28.3 29.2 29.6 30.4h-10.6zm122.7 1.6c-23.1 0-44.1-17.4-44.1-43.7 0-25.9 20.7-43.3 44.1-43.3 23.1 0 44.1 17.4 44.1 43.3 0 26.3-20.6 43.7-44.1 43.7zm0-79.4c-18.2 0-34.8 14.2-34.8 35.6s16.6 35.6 34.8 35.6 35.2-14.2 35.2-35.6-17-35.6-35.2-35.6zm91.5 25.2h-19.8v38.1c0 5.7 4 8.5 8.9 8.5 2.8 0 5.3-.4 6.9-1.2l-2 7.7c-1.2.4-3.2.8-5.7.8-9.3 0-16.6-5.7-16.6-16.2v-37.7H2054v-6.9h12.6v-13l8.1-4.5v17.4h21.5l-1.3 7zm54.3 53.8c-4-.8-8.1-4.5-8.9-8.9-3.2 5.7-10.1 8.9-17.4 8.9-11.3 0-19-7.7-19-17.4 0-11.7 9.3-17.4 19-18.6l15.8-1.6v-5.7c0-7.3-5.3-11.7-14.2-11.7-5.7 0-11.7 2-15.8 4.5l-1.6-6.9c4.5-3.2 11.3-4.9 17.8-4.9 13 0 22.3 7.3 22.3 19.8v27.1c0 6.1 3.6 8.9 7.3 9.7l-5.3 5.7zm-10.6-30.4-14.6 1.2c-7.7.8-12.6 5.3-12.6 11.7 0 6.1 4.9 10.5 11.3 10.5 7.3 0 15.8-6.1 15.8-15.4l.1-8zm48.6 59.6c-15.8 0-26.3-8.9-26.3-20.7 0-9.7 6.9-16.6 14.2-18.2l-7.3-6.5c0-4 4.5-8.1 8.5-9.3-6.1-2.8-10.9-8.9-10.9-17 0-11.3 8.9-19.8 21.9-19.8 3.2 0 5.3.4 7.3 1.2s4.5.8 7.3.8c3.6 0 6.9-.8 8.9-2l1.6 6.9c-1.6.8-5.7 2-8.1 2 2.4 2.4 4.5 6.5 4.5 11.3 0 10.5-8.5 19.8-21.9 19.8-6.5 0-10.1 2-10.1 4.5 0 .4 2.4 3.2 5.3 4.5l15.4 5.3c10.1 3.2 15.8 8.9 15.8 18.6.3 10.5-10.3 18.6-26.1 18.6zm7.7-30.4-12.1-3.6c-8.5 0-14.6 6.1-14.6 13.8 0 6.9 6.9 13.8 19 13.8 11.7 0 18.6-6.1 18.6-12.1.1-6.2-4-9.9-10.9-11.9zm-7.7-53.9c-8.1 0-14.2 5.7-14.2 13s6.1 13 14.2 13c7.7 0 13.8-5.7 13.8-13s-6.1-13-13.8-13zm65.6 55.1c-17.8 0-31.6-13-31.6-31.2s13.8-31.2 31.6-31.2 31.2 13 31.2 31.2-13.8 31.2-31.2 31.2zm0-54.7c-13 0-23.1 9.7-23.1 23.9s10.1 23.9 23.1 23.9c12.6 0 23.1-9.7 23.1-23.9-.4-14.1-10.5-23.9-23.1-23.9zm-563.6 53.5v-59.5h8.5v59.5h-8.5zm4-81c-2.8 0-4.9 2.4-4.9 5.3 0 2.8 2.4 4.9 4.9 4.9 2.8 0 5.3-2.4 5.3-4.9-.4-3.3-2.5-5.3-5.3-5.3zm91.5 81v-59.5h8.5v59.5h-8.5zm4.5-81c-2.8 0-5.3 2.4-5.3 5.3 0 2.8 2.4 4.9 5.3 4.9s5.3-2.4 5.3-4.9c-.5-3.3-2.5-5.3-5.3-5.3zm114.2 81v-59.5h8.5v59.5h-8.5zm4-81c-2.8 0-5.3 2.4-5.3 5.3 0 2.8 2.4 4.9 5.3 4.9s4.9-2.4 4.9-4.9c0-3.3-2-5.3-4.9-5.3z"/></svg>