<?xml version="1.0" encoding="utf-8"?>
<!-- Generator: Adobe Illustrator 19.0.1, SVG Export Plug-In . SVG Version: 6.00 Build 0)  -->
<!DOCTYPE svg PUBLIC "-//W3C//DTD SVG 1.1//EN" "http://www.w3.org/Graphics/SVG/1.1/DTD/svg11.dtd">
<svg version="1.1" id="Layer_1" xmlns="http://www.w3.org/2000/svg" xmlns:xlink="http://www.w3.org/1999/xlink" x="0px" y="0px"
	 viewBox="0 0 30 30" enable-background="new 0 0 30 30" xml:space="preserve">
<g>
	<path fill="#EF573D" d="M15,0C6.7,0,0,6.7,0,15s6.7,15,15,15c8.3,0,15-6.7,15-15S23.3,0,15,0z M15,26.6C8.6,26.6,3.4,21.4,3.4,15
		S8.6,3.4,15,3.4c6.4,0,11.6,5.2,11.6,11.6S21.4,26.6,15,26.6z"/>
	<path fill="#EF573D" d="M20.3,9.7c-0.7-0.7-1.7-0.7-2.4,0L15,12.6l-2.9-2.9C11.4,9,10.4,9,9.7,9.7c-0.7,0.7-0.7,1.7,0,2.4l2.9,2.9
		l-2.9,2.9c-0.7,0.7-0.7,1.7,0,2.4c0.3,0.3,0.8,0.5,1.2,0.5c0.4,0,0.9-0.2,1.2-0.5l2.9-2.9l2.9,2.9c0.3,0.3,0.8,0.5,1.2,0.5
		c0.4,0,0.9-0.2,1.2-0.5c0.7-0.7,0.7-1.7,0-2.4L17.4,15l2.9-2.9C21,11.4,21,10.4,20.3,9.7z"/>
</g>
</svg>
