<?xml version="1.0" encoding="utf-8"?>
<!-- Generator: Adobe Illustrator 16.0.0, SVG Export Plug-In . SVG Version: 6.00 Build 0)  -->
<!DOCTYPE svg PUBLIC "-//W3C//DTD SVG 1.1//EN" "http://www.w3.org/Graphics/SVG/1.1/DTD/svg11.dtd">
<svg version="1.1" id="Layer_1" xmlns="http://www.w3.org/2000/svg" xmlns:xlink="http://www.w3.org/1999/xlink" x="0px" y="0px"
	 width="32px" height="36px" viewBox="0 0 32 36" enable-background="new 0 0 32 36" xml:space="preserve">
<g opacity="0.8">
	<g>
		<defs>
			<rect id="SVGID_1_" x="0.117" y="0.715" width="31.883" height="35.22"/>
		</defs>
		<clipPath id="SVGID_2_">
			<use xlink:href="#SVGID_1_"  overflow="visible"/>
		</clipPath>
		<rect x="6.049" y="20.735" clip-path="url(#SVGID_2_)" fill="#414142" width="13.346" height="2.224"/>
		<rect x="6.049" y="14.061" clip-path="url(#SVGID_2_)" fill="#414142" width="13.346" height="2.224"/>
		<rect x="6.049" y="7.388" clip-path="url(#SVGID_2_)" fill="#414142" width="13.346" height="2.225"/>
		<path clip-path="url(#SVGID_2_)" fill="#414142" d="M30.518,5.905h-5.191V2.197c0-0.927-0.555-1.482-1.481-1.482H1.6
			c-0.926,0-1.482,0.556-1.482,1.482v27.434c0,0.928,0.556,1.484,1.482,1.484h5.19v3.337c0,0.927,0.557,1.482,1.484,1.482h22.244
			c0.926,0,1.482-0.556,1.482-1.482V7.388C32,6.46,31.443,5.905,30.518,5.905 M2.342,28.149V3.681c0-0.463,0.277-0.742,0.742-0.742
			H22.36c0.465,0,0.742,0.279,0.742,0.742v24.469c0,0.463-0.277,0.741-0.742,0.741H3.083C2.619,28.891,2.342,28.612,2.342,28.149
			 M29.775,32.968c0,0.463-0.278,0.741-0.741,0.741H10.126c-0.463,0-0.742-0.276-0.742-0.741v-1.854h14.46
			c0.927,0,1.481-0.556,1.481-1.483V8.5h3.708c0.463,0,0.741,0.278,0.741,0.741V32.968z"/>
	</g>
</g>
</svg>
