<?xml version="1.0" encoding="utf-8"?>
<!-- Generator: Adobe Illustrator 16.0.0, SVG Export Plug-In . SVG Version: 6.00 Build 0)  -->
<!DOCTYPE svg PUBLIC "-//W3C//DTD SVG 1.1//EN" "http://www.w3.org/Graphics/SVG/1.1/DTD/svg11.dtd">
<svg version="1.1" id="Layer_1" xmlns="http://www.w3.org/2000/svg" xmlns:xlink="http://www.w3.org/1999/xlink" x="0px" y="0px"
	 width="32px" height="36px" viewBox="0 0 32 36" enable-background="new 0 0 32 36" xml:space="preserve">
<path d="M30.092,36H1.908c-0.884,0-1.6-0.723-1.6-1.612v-9.226c0-0.891,0.716-1.612,1.6-1.612c0.883,0,1.601,0.722,1.601,1.612
	v7.613h24.982v-7.613c0-0.891,0.716-1.612,1.601-1.612c0.883,0,1.6,0.722,1.6,1.612v9.225C31.691,35.277,30.976,36,30.092,36"/>
<path d="M23.926,16.786l-6.796,6.847c-0.18,0.181-0.404,0.321-0.656,0.398c-0.052,0.016-0.104,0.027-0.155,0.04
	c-0.101,0.021-0.208,0.033-0.32,0.033c-0.269,0-0.521-0.065-0.74-0.187c-0.048-0.023-0.092-0.052-0.136-0.081
	c-0.044-0.028-0.088-0.06-0.132-0.097c-0.044-0.032-0.084-0.068-0.12-0.107l-6.796-6.847c-0.624-0.628-0.624-1.652,0-2.281
	c0.628-0.629,1.64-0.629,2.264,0l4.061,4.096V1.612c0-0.891,0.72-1.612,1.6-1.612c0.884,0,1.6,0.721,1.6,1.612V18.6l4.064-4.096
	c0.624-0.629,1.636-0.629,2.264,0C24.55,15.133,24.55,16.157,23.926,16.786"/>
</svg>
