<?xml version="1.0" encoding="utf-8"?>
<!-- Generator: Adobe Illustrator 16.0.0, SVG Export Plug-In . SVG Version: 6.00 Build 0)  -->
<!DOCTYPE svg PUBLIC "-//W3C//DTD SVG 1.1//EN" "http://www.w3.org/Graphics/SVG/1.1/DTD/svg11.dtd">
<svg version="1.1" id="Layer_1" xmlns="http://www.w3.org/2000/svg" xmlns:xlink="http://www.w3.org/1999/xlink" x="0px" y="0px"
	 width="34px" height="34px" viewBox="0 0 34 34" enable-background="new 0 0 34 34" xml:space="preserve">
<path fill="#1A79BF" d="M8.721,30.171c-1.273-0.616-2.371,1.28-1.098,1.943c5.533,2.692,12.427,2.384,17.652-0.839
	c9.354-5.737,10.276-19.819,2.196-27.014c-3.733-3.311-8.96-4.767-13.92-4.105C7.887,0.951,3.32,4.526,0.598,9.514
	C0.553,9.602,0.509,9.691,0.509,9.779c-0.132,0.353-0.043,0.75,0.264,1.059c3.644,3.664,7.246,7.284,10.89,10.948
	c0.307,0.309,0.79,0.309,0.79,0.309c0.264,0,0.527-0.089,0.747-0.309c2.24-2.251,4.523-4.547,6.763-6.799v4.591
	c0,1.413,2.194,1.413,2.194,0v-7.327c0-0.354-0.132-0.618-0.308-0.794c-0.176-0.176-0.438-0.31-0.79-0.31h-7.157
	c-1.406,0-1.406,2.207,0,2.207h4.566c-2.019,2.031-4.04,4.062-6.06,6.093c-3.118-3.179-6.323-6.357-9.485-9.535
	c3.118-5.164,8.475-8.21,14.579-7.636c5.885,0.574,10.934,4.546,12.733,10.24c1.67,5.341-0.131,11.918-4.347,15.626
	C21.368,32.114,14.035,32.82,8.721,30.171"/>
</svg>
