<?xml version="1.0" encoding="utf-8"?>
<!-- Generator: Adobe Illustrator 16.0.0, SVG Export Plug-In . SVG Version: 6.00 Build 0)  -->
<!DOCTYPE svg PUBLIC "-//W3C//DTD SVG 1.1//EN" "http://www.w3.org/Graphics/SVG/1.1/DTD/svg11.dtd">
<svg version="1.1" id="Layer_1" xmlns="http://www.w3.org/2000/svg" xmlns:xlink="http://www.w3.org/1999/xlink" x="0px" y="0px"
	 width="15px" height="11px" viewBox="0 0 15 11" enable-background="new 0 0 15 11" xml:space="preserve">
<path fill="#79c8bb" d="M1.207,6.387h10.248l-2.739,2.74c-0.379,0.378-0.379,0.991,0,1.369c0.378,0.378,0.99,0.378,1.368,0
	l4.393-4.392c0.045-0.045,0.086-0.096,0.121-0.148c0.015-0.021,0.023-0.046,0.036-0.068c0.019-0.031,0.038-0.063,0.053-0.099
	c0.012-0.028,0.018-0.058,0.026-0.087c0.011-0.031,0.022-0.061,0.028-0.094c0.01-0.049,0.013-0.101,0.015-0.15
	c0.001-0.013,0.005-0.025,0.005-0.039c0-0.015-0.005-0.029-0.005-0.044c-0.002-0.048-0.005-0.096-0.015-0.144
	c-0.007-0.035-0.019-0.067-0.03-0.101c-0.008-0.026-0.014-0.055-0.024-0.081c-0.016-0.038-0.036-0.072-0.057-0.106
	c-0.011-0.021-0.02-0.041-0.031-0.061c-0.036-0.054-0.077-0.104-0.123-0.149l-4.392-4.392C9.896,0.153,9.647,0.06,9.399,0.06
	S8.904,0.153,8.716,0.342c-0.379,0.378-0.379,0.991,0,1.369l2.738,2.74H1.207c-0.535,0-0.968,0.433-0.968,0.968
	S0.672,6.387,1.207,6.387"/>
</svg>
