<?xml version="1.0" encoding="utf-8"?>
<!-- Generator: Adobe Illustrator 15.0.0, SVG Export Plug-In  -->
<!DOCTYPE svg PUBLIC "-//W3C//DTD SVG 1.1//EN" "http://www.w3.org/Graphics/SVG/1.1/DTD/svg11.dtd" [
	<!ENTITY ns_flows "http://ns.adobe.com/Flows/1.0/">
]>
<svg version="1.1"
	 xmlns="http://www.w3.org/2000/svg" xmlns:xlink="http://www.w3.org/1999/xlink" xmlns:a="http://ns.adobe.com/AdobeSVGViewerExtensions/3.0/"
	 x="0px" y="0px" width="34px" height="35px" viewBox="0 0.153 34 35" overflow="visible" enable-background="new 0 0.153 34 35"
	 xml:space="preserve">
<defs>
</defs>
<path fill="#F7F8F7" d="M8.575,31.119c-1.32-0.637-2.458,1.32-1.138,2.003c5.736,2.777,12.883,2.459,18.301-0.865
	c9.697-5.918,10.654-20.44,2.277-27.861c-3.871-3.415-9.289-4.917-14.433-4.234C7.71,0.98,2.975,4.668,0.153,9.812
	c-0.046,0.092-0.091,0.182-0.091,0.274c-0.137,0.364-0.046,0.774,0.273,1.092c3.778,3.779,7.512,7.512,11.29,11.292
	c0.319,0.318,0.82,0.318,0.82,0.318c0.273,0,0.546-0.091,0.774-0.318c2.322-2.322,4.689-4.689,7.012-7.011v4.734
	c0,1.457,2.275,1.457,2.275,0v-7.557c0-0.364-0.135-0.637-0.318-0.819c-0.182-0.182-0.455-0.319-0.818-0.319h-7.422
	c-1.457,0-1.457,2.276,0,2.276h4.735c-2.094,2.095-4.188,4.189-6.283,6.282c-3.232-3.277-6.556-6.555-9.834-9.833
	c3.233-5.327,8.787-8.468,15.115-7.876c6.102,0.592,11.338,4.689,13.203,10.562c1.73,5.509-0.135,12.292-4.506,16.117
	C21.688,33.122,14.084,33.852,8.575,31.119"/>
</svg>
