<?xml version="1.0" encoding="utf-8"?>
<!-- Generator: Adobe Illustrator 16.0.0, SVG Export Plug-In . SVG Version: 6.00 Build 0)  -->
<!DOCTYPE svg PUBLIC "-//W3C//DTD SVG 1.1//EN" "http://www.w3.org/Graphics/SVG/1.1/DTD/svg11.dtd">
<svg version="1.1" id="Layer_1" xmlns="http://www.w3.org/2000/svg" xmlns:xlink="http://www.w3.org/1999/xlink" x="0px" y="0px"
	 width="39px" height="40px" viewBox="0 0 39 40" enable-background="new 0 0 39 40" xml:space="preserve">
<path fill="#333437" d="M10.078,11.562H1.559c-0.829,0-1.5-0.671-1.5-1.5v-8.52c0-0.828,0.671-1.5,1.5-1.5h8.519
	c0.829,0,1.5,0.672,1.5,1.5v8.52C11.578,10.891,10.906,11.562,10.078,11.562 M3.059,8.562h5.52v-5.52h-5.52V8.562z"/>
<path fill="#333437" d="M10.078,25.76H1.559c-0.829,0-1.5-0.672-1.5-1.5v-8.518c0-0.829,0.671-1.5,1.5-1.5h8.519
	c0.829,0,1.5,0.671,1.5,1.5v8.518C11.578,25.088,10.906,25.76,10.078,25.76 M3.059,22.76h5.52v-5.518h-5.52V22.76z"/>
<path fill="#333437" d="M10.078,39.959H1.559c-0.829,0-1.5-0.672-1.5-1.5v-8.52c0-0.828,0.671-1.5,1.5-1.5h8.519
	c0.829,0,1.5,0.672,1.5,1.5v8.52C11.578,39.287,10.906,39.959,10.078,39.959 M3.059,36.959h5.52v-5.52h-5.52V36.959z"/>
<path fill="#333437" d="M37.441,7.474H16.44c-0.829,0-1.5-0.671-1.5-1.5s0.671-1.5,1.5-1.5h21.001c0.828,0,1.5,0.671,1.5,1.5
	S38.27,7.474,37.441,7.474"/>
<path fill="#333437" d="M37.441,21.473H16.44c-0.829,0-1.5-0.669-1.5-1.499c0-0.829,0.671-1.5,1.5-1.5h21.001
	c0.828,0,1.5,0.671,1.5,1.5C38.941,20.803,38.27,21.473,37.441,21.473"/>
<path fill="#333437" d="M37.441,36.473H16.44c-0.829,0-1.5-0.67-1.5-1.5c0-0.828,0.671-1.5,1.5-1.5h21.001
	c0.828,0,1.5,0.672,1.5,1.5C38.941,35.803,38.27,36.473,37.441,36.473"/>
</svg>
