<?xml version="1.0" encoding="utf-8"?>
<!-- Generator: Adobe Illustrator 16.0.0, SVG Export Plug-In . SVG Version: 6.00 Build 0)  -->
<!DOCTYPE svg PUBLIC "-//W3C//DTD SVG 1.1//EN" "http://www.w3.org/Graphics/SVG/1.1/DTD/svg11.dtd">
<svg version="1.1" id="Layer_1" xmlns="http://www.w3.org/2000/svg" xmlns:xlink="http://www.w3.org/1999/xlink" x="0px" y="0px"
	 width="40px" height="30.5px" viewBox="0 0 40 30.5" enable-background="new 0 0 40 30.5" xml:space="preserve">
<path fill="#1A79BF" d="M35.262,16.521l-4.826,1.572c0.022-1.138-0.134-2.34-0.266-2.948l4.195-1.365
	c2.267-0.746,3.331-3.751,2.364-6.705c-0.791-2.423-2.814-4.18-4.821-4.18c-0.356,0-0.71,0.057-1.034,0.161L16.761,7.659
	c-2.15,0.7-3.231,3.463-2.474,6.302c0.023,0.122,0.058,0.249,0.109,0.398c0.798,2.463,2.781,4.18,4.816,4.18
	c0.354,0,0.706-0.058,1.04-0.161l3.708-1.208c0.126,1.555-0.481,3.022-1.521,3.358l-2.671,0.873l-0.092,0.006
	c-3.612,0.242-6.793-2.347-8.03-6.14l-0.018-0.069c-0.023-0.069-0.046-0.139-0.075-0.243c-0.422-1.434-0.508-2.942-0.255-4.371
	c0.498-2.781,2.203-4.902,4.568-5.67l14.112-4.607c0.612-0.197,1.266-0.302,1.931-0.302c3.273,0,6.383,2.538,7.574,6.174
	C40.934,10.654,39.043,15.291,35.262,16.521"/>
<path fill="#1A79BF" d="M28.503,14.978c0.289,1.434,0.937,3.572-0.249,6.135c-0.676,1.972-1.999,3.496-3.984,4.145l-4.468,1.456
	l-9.644,3.146c-0.624,0.202-1.271,0.306-1.936,0.306c-3.272,0-6.382-2.543-7.568-6.18c-0.688-2.11-0.665-4.33,0.075-6.249
	c0.775-1.996,2.284-3.481,4.139-4.087l4.73-1.538c-0.046,0.983,0.034,1.972,0.248,2.937c0,0.006,0,0.012,0.006,0.018l-4.093,1.324
	c-1.417,0.468-2.071,1.699-2.324,2.383C2.931,20.055,2.92,21.631,3.4,23.091c0.803,2.461,2.786,4.185,4.822,4.185
	c0.358,0,0.705-0.058,1.04-0.168l9.314-3l1.376-0.423c0.543-0.179,2.792-0.873,2.792-0.873c1.18-0.387,2.226-1.399,2.827-2.648
	c0.561-1.162,0.734-2.566,0.271-3.983c-0.028-0.126-0.063-0.243-0.104-0.375c-0.804-2.462-2.787-4.181-4.827-4.181
	c-0.342,0-0.688,0.058-1.034,0.168l-3.903,1.277c-0.145-1.573,0.451-2.994,1.491-3.329l3.013-0.989h0.011
	c0.139-0.012,0.283-0.018,0.422-0.018c3.271,0,6.389,2.538,7.567,6.168L28.503,14.978z"/>
</svg>
