<?xml version="1.0" encoding="utf-8"?>
<!-- Generator: Adobe Illustrator 16.0.0, SVG Export Plug-In . SVG Version: 6.00 Build 0)  -->
<!DOCTYPE svg PUBLIC "-//W3C//DTD SVG 1.1//EN" "http://www.w3.org/Graphics/SVG/1.1/DTD/svg11.dtd">
<svg version="1.1" id="Layer_1" xmlns="http://www.w3.org/2000/svg" xmlns:xlink="http://www.w3.org/1999/xlink" x="0px" y="0px"
	 width="20.9px" height="16.2px" viewBox="0 0 20.9 16.2" enable-background="new 0 0 20.9 16.2" xml:space="preserve">
<path fill="#414142" d="M19.469,16.156H1.433c-0.773,0-1.402-0.629-1.402-1.4V1.446c0-0.774,0.629-1.403,1.402-1.403h18.036
	c0.772,0,1.401,0.629,1.401,1.403v13.31C20.87,15.527,20.241,16.156,19.469,16.156 M1.433,1.358c-0.049,0-0.088,0.039-0.088,0.088
	v13.31c0,0.047,0.04,0.086,0.088,0.086h18.036c0.047,0,0.087-0.039,0.087-0.086V1.446c0-0.048-0.039-0.088-0.087-0.088H1.433z"/>
<path fill="#414142" d="M10.688,9.477c-0.146,0-0.29-0.047-0.41-0.143L0.627,1.63l0.82-1.027l9.23,7.367l8.675-7.311l0.846,1.005
	l-9.087,7.659C10.989,9.426,10.839,9.477,10.688,9.477"/>
<rect x="2.976" y="8.212" transform="matrix(0.7555 0.6552 -0.6552 0.7555 8.8213 0.5799)" fill="#414142" width="1.315" height="7.791"/>
<rect x="13.543" y="11.451" transform="matrix(0.6553 0.7553 -0.7553 0.6553 15.156 -8.9985)" fill="#414142" width="7.791" height="1.314"/>
</svg>
