<?xml version="1.0" encoding="utf-8"?>
<!-- Generator: Adobe Illustrator 16.0.0, SVG Export Plug-In . SVG Version: 6.00 Build 0)  -->
<!DOCTYPE svg PUBLIC "-//W3C//DTD SVG 1.1//EN" "http://www.w3.org/Graphics/SVG/1.1/DTD/svg11.dtd">
<svg version="1.1" id="Layer_1" xmlns="http://www.w3.org/2000/svg" xmlns:xlink="http://www.w3.org/1999/xlink" x="0px" y="0px"
	 width="21.5px" height="21.5px" viewBox="0 0 21.5 21.5" enable-background="new 0 0 21.5 21.5" xml:space="preserve">
<path fill="#414142" d="M17.096,9.917c0.016-0.12,0.027-0.243,0.027-0.363c-0.014-1.193-0.688-2.481-1.807-3.572
	c-1.098-1.046-2.365-1.659-3.525-1.67c-0.178,0-0.354,0.023-0.526,0.057l0.039,1.317c0.125-0.057,0.278-0.094,0.487-0.096h0.022
	c0.676,0,1.727,0.45,2.616,1.313c0.939,0.891,1.43,1.982,1.416,2.651c0,0.112-0.014,0.203-0.035,0.287L17.096,9.917z M16.145,5.12
	c1.637,1.562,2.686,3.376,3.074,4.92l1.318,0.075c-0.367-1.889-1.533-3.933-3.324-5.724l-1.141-1.029
	c-1.598-1.291-3.312-2.119-4.908-2.403l0.039,1.304C12.74,2.609,14.551,3.579,16.145,5.12 M21.111,16.76l-5.09-3.846
	c-0.227-0.17-0.539-0.172-0.766,0l-2.186,1.623L6.965,8.432l1.65-2.214c0.171-0.229,0.17-0.541-0.003-0.767l-3.845-5.09
	C4.665,0.223,4.511,0.133,4.341,0.112C4.172,0.09,4,0.137,3.864,0.243C3.86,0.248,1.494,2.105,0.735,2.747
	C0.296,3.141,0.147,3.711,0.134,4.472c0.015,1.992,1.303,5.426,6.207,10.342l0.268,0.322l0.037,0.039
	c4.924,4.912,8.358,6.203,10.354,6.217c0.76-0.014,1.328-0.164,1.725-0.598c0.643-0.758,2.5-3.127,2.504-3.129
	c0.107-0.135,0.154-0.309,0.131-0.479C21.338,17.02,21.248,16.865,21.111,16.76 M17.752,19.969c0-0.002,0.002,0.002-0.018,0.01
	c-0.076,0.051-0.328,0.139-0.734,0.137c-1.424,0.014-4.664-1.045-9.433-5.822l-0.275-0.328l-0.036-0.041
	C2.46,9.142,1.397,5.896,1.413,4.472c0-0.272,0.035-0.473,0.078-0.601C1.511,3.809,1.534,3.765,1.547,3.74
	C1.556,3.727,1.56,3.721,1.564,3.72c0.511-0.433,1.84-1.487,2.578-2.07l3.164,4.188L5.612,8.112C5.423,8.366,5.45,8.722,5.672,8.945
	l0.154,0.153L5.797,9.127l6.73,6.728c0.225,0.225,0.58,0.25,0.832,0.062l2.275-1.695l4.186,3.164
	C19.236,18.127,18.178,19.465,17.752,19.969"/>
</svg>
