<?xml version="1.0" encoding="utf-8"?>
<!-- Generator: Adobe Illustrator 16.0.0, SVG Export Plug-In . SVG Version: 6.00 Build 0)  -->
<!DOCTYPE svg PUBLIC "-//W3C//DTD SVG 1.1//EN" "http://www.w3.org/Graphics/SVG/1.1/DTD/svg11.dtd">
<svg version="1.1" id="Layer_1" xmlns="http://www.w3.org/2000/svg" xmlns:xlink="http://www.w3.org/1999/xlink" x="0px" y="0px"
	 width="13.36px" height="13.36px" viewBox="0 0 13.36 13.36" enable-background="new 0 0 13.36 13.36" xml:space="preserve">
<g opacity="0.8">
	<g>
		<defs>
			<rect id="SVGID_1_" width="13.36" height="13.36"/>
		</defs>
		<clipPath id="SVGID_2_">
			<use xlink:href="#SVGID_1_"  overflow="visible"/>
		</clipPath>
		<path clip-path="url(#SVGID_2_)" fill="#FFFFFF" d="M13.016,11.349l-2.884-2.883c0.549-0.855,0.871-1.872,0.871-2.964
			c0-3.038-2.463-5.501-5.501-5.501C2.463,0.001,0,2.464,0,5.502s2.463,5.502,5.502,5.502c1.092,0,2.107-0.323,2.963-0.871
			l2.884,2.883c0.23,0.229,0.531,0.345,0.833,0.345c0.303,0,0.604-0.115,0.834-0.345C13.476,12.556,13.476,11.809,13.016,11.349
			 M1.572,5.502c0-2.167,1.763-3.93,3.93-3.93c2.166,0,3.929,1.763,3.929,3.93s-1.763,3.93-3.929,3.93
			C3.335,9.432,1.572,7.669,1.572,5.502"/>
	</g>
</g>
</svg>
