<?xml version="1.0" encoding="utf-8"?>
<!-- Generator: Adobe Illustrator 16.0.0, SVG Export Plug-In . SVG Version: 6.00 Build 0)  -->
<!DOCTYPE svg PUBLIC "-//W3C//DTD SVG 1.1//EN" "http://www.w3.org/Graphics/SVG/1.1/DTD/svg11.dtd">
<svg version="1.1" id="Layer_1" xmlns="http://www.w3.org/2000/svg" xmlns:xlink="http://www.w3.org/1999/xlink" x="0px" y="0px"
	 width="30px" height="24.4px" viewBox="0 0 30 24.4" enable-background="new 0 0 30 24.4" xml:space="preserve">
<path fill="#FFFFFF" d="M29.894,2.987c-1.097,0.487-2.273,0.815-3.51,0.962c1.262-0.756,2.231-1.954,2.688-3.38
	c-1.182,0.699-2.489,1.208-3.881,1.483c-1.116-1.188-2.704-1.93-4.462-1.93c-3.375,0-6.11,2.736-6.11,6.111
	c0,0.478,0.054,0.946,0.158,1.392C9.696,7.371,5.194,4.937,2.18,1.24C1.653,2.143,1.352,3.192,1.352,4.312
	c0,2.12,1.08,3.991,2.718,5.087C3.069,9.367,2.127,9.093,1.303,8.635c0,0.025,0,0.052,0,0.077c0,2.961,2.106,5.432,4.901,5.994
	c-0.512,0.14-1.052,0.215-1.609,0.215c-0.394,0-0.778-0.039-1.15-0.11c0.778,2.428,3.035,4.193,5.708,4.244
	c-2.09,1.639-4.726,2.616-7.589,2.616c-0.494,0-0.98-0.029-1.457-0.085c2.705,1.733,5.917,2.744,9.368,2.744
	c11.241,0,17.388-9.311,17.388-17.388c0-0.265-0.006-0.529-0.018-0.791C28.038,5.289,29.075,4.213,29.894,2.987"/>
</svg>
