<?xml version="1.0" standalone="no"?>
<!DOCTYPE svg PUBLIC "-//W3C//DTD SVG 1.1//EN" "http://www.w3.org/Graphics/SVG/1.1/DTD/svg11.dtd" >
<svg xmlns="http://www.w3.org/2000/svg">
<metadata>
<json>
{
	"fontFamily": "iconmoon",
	"majorVersion": 1,
	"minorVersion": 0,
	"version": "Version 1.0",
	"fontId": "iconmoon",
	"psName": "iconmoon",
	"subFamily": "Regular",
	"fullName": "iconmoon",
	"description": "Font generated by IcoMoon."
}
</json>
</metadata>
<defs>
<font id="iconmoon" horiz-adv-x="512">
<font-face units-per-em="512" ascent="480" descent="-32" />
<missing-glyph horiz-adv-x="512" />
<glyph unicode="&#x20;" d="" horiz-adv-x="256" />
<glyph unicode="&#xe600;" d="M498.817 45.068l-110.524 110.486c21.039 32.767 33.38 71.742 33.38 113.591 0 116.427-94.39 210.817-210.817 210.817-116.465 0-210.855-94.39-210.855-210.817s94.391-210.855 210.855-210.855c41.849 0 80.748 12.378 113.552 33.38l110.524-110.486c8.815-8.776 20.349-13.221 31.923-13.221 11.612 0 23.147 4.407 31.962 13.221 17.629 17.628 17.629 46.257 0 63.885zM60.245 269.145c0 83.047 67.564 150.611 150.611 150.611 83.009 0 150.572-67.564 150.572-150.611s-67.564-150.611-150.572-150.611c-83.046 0-150.611 67.564-150.611 150.611z" data-tags="search" />
<glyph unicode="&#xe601;" d="M128.999 332.006h-109.043c-10.611 0-19.2 8.589-19.2 19.2v109.056c0 10.599 8.589 19.2 19.2 19.2h109.043c10.611 0 19.2-8.601 19.2-19.2v-109.056c0-10.611-8.601-19.2-19.2-19.2zM39.155 370.406h70.656v70.656h-70.656v-70.656zM128.999 150.272h-109.043c-10.611 0-19.2 8.601-19.2 19.2v109.031c0 10.611 8.589 19.2 19.2 19.2h109.043c10.611 0 19.2-8.589 19.2-19.2v-109.031c0-10.599-8.601-19.2-19.2-19.2zM39.155 188.672h70.656v70.63h-70.656v-70.63zM128.999-31.475h-109.043c-10.611 0-19.2 8.601-19.2 19.2v109.056c0 10.599 8.589 19.2 19.2 19.2h109.043c10.611 0 19.2-8.601 19.2-19.2v-109.056c0-10.599-8.601-19.2-19.2-19.2zM39.155 6.925h70.656v70.656h-70.656v-70.656zM479.245 384.333h-268.813c-10.611 0-19.2 8.589-19.2 19.2s8.589 19.2 19.2 19.2h268.813c10.599 0 19.2-8.589 19.2-19.2s-8.589-19.2-19.2-19.2zM479.245 205.146h-268.813c-10.611 0-19.2 8.563-19.2 19.187 0 10.611 8.589 19.2 19.2 19.2h268.813c10.599 0 19.2-8.589 19.2-19.2s-8.589-19.187-19.2-19.187zM479.245 13.146h-268.813c-10.611 0-19.2 8.576-19.2 19.2 0 10.599 8.589 19.2 19.2 19.2h268.813c10.599 0 19.2-8.601 19.2-19.2 0-10.624-8.589-19.2-19.2-19.2z" horiz-adv-x="499" data-tags="info" />
<glyph unicode="&#xe602;" d="M427.975-32h-400.839c-12.572 0-22.756 10.283-22.756 22.926v131.214c0 12.672 10.183 22.926 22.756 22.926 12.558 0 22.77-10.269 22.77-22.926v-108.274h355.3v108.274c0 12.672 10.183 22.926 22.77 22.926 12.558 0 22.755-10.269 22.755-22.926v-131.2c-0.014-12.658-10.183-22.94-22.755-22.94zM340.281 241.266l-96.654-97.379c-2.56-2.574-5.746-4.565-9.33-5.661-0.739-0.228-1.479-0.384-2.204-0.569-1.436-0.298-2.958-0.469-4.551-0.469-3.826 0-7.41 0.925-10.524 2.659-0.683 0.327-1.309 0.74-1.934 1.152-0.626 0.398-1.251 0.853-1.877 1.38-0.626 0.455-1.195 0.967-1.707 1.522l-96.654 97.38c-8.874 8.931-8.874 23.495 0 32.441 8.931 8.946 23.325 8.946 32.199 0l57.757-58.254v241.607c0 12.672 10.24 22.926 22.756 22.926 12.572 0 22.756-10.254 22.756-22.926v-241.607l57.799 58.254c8.875 8.946 23.267 8.946 32.199 0 8.846-8.946 8.846-23.51-0.029-32.455z" horiz-adv-x="455" data-tags="download" />
<glyph unicode="&#xe603;" d="M209.755 340.719l154.938-116.202-154.939-116.209z" data-tags="play" />
<glyph unicode="&#xe604;" d="M271.040 222.016l-239.424-240.512-31.616 31.776 207.776 208.736-207.776 208.8 31.616 31.776z" horiz-adv-x="271" data-tags="arrow" />
<glyph unicode="&#xe605;" d="M615.317-30.61h-570.027c-24.43 0-44.31 19.88-44.31 44.247v420.661c0 24.462 19.88 44.341 44.31 44.341h570.027c24.399 0 44.279-19.88 44.279-44.341v-420.661c0-24.368-19.88-44.247-44.279-44.247zM45.29 437.081c-1.548 0-2.781-1.233-2.781-2.781v-420.661c0-1.486 1.264-2.718 2.781-2.718h570.027c1.486 0 2.75 1.233 2.75 2.718v420.661c0 1.517-1.232 2.781-2.75 2.781h-570.027zM337.793 180.48c-4.615 0-9.166 1.486-12.958 4.519l-305.019 243.485 25.916 32.458 291.714-232.833 274.173 231.063 26.738-31.763-287.194-242.062c-3.856-3.255-8.596-4.867-13.369-4.867zM179.805 203.964l31.399-27.231-161.333-186.030-31.399 27.231 161.333 186.030zM486.14 203.951l161.357-185.981-31.367-27.214-161.357 185.981 31.367 27.214z" horiz-adv-x="661" data-tags="mail" />
<glyph unicode="&#xe606;" d="M407.123 243.837c0.381 2.857 0.643 5.787 0.643 8.644-0.334 28.41-16.384 59.082-43.032 85.063-26.147 24.91-56.32 39.508-83.944 39.769-4.239 0-8.43-0.547-12.526-1.357l0.928-31.363c2.976 1.358 6.62 2.238 11.598 2.286h0.524c16.098 0 41.127-10.716 62.298-31.267 22.361-21.218 34.054-47.2 33.721-63.131 0-2.667-0.334-4.834-0.834-6.834l30.625-1.81zM384.476 358.072c38.983-37.197 63.964-80.396 73.204-117.164l31.387-1.786c-8.74 44.984-36.507 93.661-79.158 136.311l-27.171 24.505c-38.055 30.744-78.872 50.462-116.879 57.225l0.928-31.053c36.602-8.24 79.729-31.339 117.689-68.037zM502.736 80.878l-121.213 91.589c-5.406 4.048-12.836 4.096-18.241 0l-52.058-38.65-145.361 145.384 39.293 52.724c4.072 5.454 4.048 12.884-0.071 18.266l-91.564 121.213c-2.429 3.286-6.097 5.429-10.145 5.929-4.025 0.524-8.12-0.596-11.359-3.12-0.096-0.119-56.439-44.341-74.514-59.63-10.454-9.382-14.002-22.957-14.312-41.079 0.357-47.438 31.029-129.215 147.813-246.284l6.382-7.668 0.881-0.928c117.26-116.974 199.037-147.718 246.57-148.052 18.099 0.334 31.625 3.906 41.079 14.24 15.313 18.051 59.535 74.466 59.63 74.514 2.548 3.215 3.668 7.358 3.12 11.407-0.524 3.953-2.667 7.644-5.93 10.144zM422.745 4.459c0 0.048 0.048-0.048-0.428-0.238-1.81-1.214-7.811-3.31-17.48-3.262-33.911-0.334-111.068 24.885-224.637 138.645l-6.549 7.811-0.857 0.976c-114.212 113.902-139.526 191.202-139.145 225.113 0 6.478 0.834 11.264 1.858 14.312 0.477 1.476 1.024 2.524 1.334 3.12 0.215 0.309 0.309 0.452 0.405 0.476 12.169 10.311 43.817 35.411 61.392 49.295l75.347-99.733-40.341-54.153c-4.501-6.048-3.858-14.526 1.429-19.837l3.667-3.644-0.69-0.69 160.268-160.221c5.358-5.358 13.812-5.954 19.813-1.476l54.176 40.365 99.685-75.347c-13.908-17.646-39.103-49.509-49.248-61.512z" data-tags="phone" />
<glyph unicode="&#xe607;" d="M591.939 202.664l-81.014-26.389c0.37 19.103-2.25 39.281-4.466 49.488l70.421 22.914c38.056 12.523 55.917 62.968 39.684 112.556-13.279 40.675-47.239 70.169-80.929 70.169-5.976 0-11.918-0.957-17.357-2.702l-236.913-77.27c-36.092-11.751-54.238-58.133-41.531-105.791 0.386-2.048 0.974-4.18 1.83-6.681 13.396-41.346 46.684-70.169 80.845-70.169 5.942 0 11.851 0.974 17.459 2.702l62.246 20.279c2.115-26.103-8.075-50.73-25.533-56.37l-44.838-14.655-1.545-0.101c-60.634-4.063-114.034 39.399-134.798 103.072l-0.302 1.159c-0.386 1.159-0.772 2.333-1.259 4.079-7.084 24.072-8.528 49.387-4.28 73.375 8.36 46.685 36.982 82.289 76.683 95.182l236.897 77.337c10.273 3.307 21.252 5.070 32.416 5.070 54.943 0 107.15-42.605 127.144-103.642 24.358-75.122-7.386-152.962-70.857-173.61zM478.476 228.566c4.851-24.073 15.729-59.963-4.18-102.987-11.348-33.103-33.557-58.687-66.879-69.582l-236.897-77.253c-10.475-3.391-21.336-5.137-32.5-5.137-54.927 0-107.134 42.689-127.043 103.743-11.55 35.421-11.164 72.687 1.259 104.901 13.010 33.507 38.341 58.435 69.481 68.608l79.402 25.818c-0.772-16.501 0.571-33.103 4.163-49.303 0-0.101 0-0.202 0.101-0.302l-68.709-22.226c-23.787-7.856-34.766-28.521-39.013-40.003-8.46-21.504-8.645-47.96-0.587-72.469 13.48-41.313 46.769-70.253 80.947-70.253 6.010 0 11.835 0.974 17.458 2.82l156.353 50.361 23.099 7.101c9.115 3.005 46.869 14.655 46.869 14.655 19.808 6.497 37.368 23.485 47.457 44.452 9.418 19.507 12.322 43.075 4.549 66.862-0.47 2.115-1.058 4.079-1.746 6.295-13.497 41.329-46.785 70.186-81.031 70.186-5.741 0-11.55-0.973-17.358-2.82l-65.519-21.437c-2.434 26.406 7.571 50.26 25.029 55.883l50.579 16.602h0.185c2.334 0.202 4.75 0.302 7.084 0.302 54.91 0 107.252-42.605 127.026-103.541l0.42-1.276z" horiz-adv-x="672" data-tags="link" />
<glyph unicode="&#xe608;" d="M627.284 417.322c-23.019-10.219-47.696-17.101-73.653-20.186 26.481 15.864 46.814 41.002 56.404 70.925-24.803-14.668-52.228-25.348-81.438-31.118-23.418 24.928-56.74 40.498-93.629 40.498-70.82 0-128.21-57.411-128.21-128.231 0-10.030 1.133-19.851 3.315-29.209-106.618 5.33-201.086 56.404-264.33 133.981-11.059-18.948-17.375-40.96-17.375-64.462 0-44.485 22.662-83.745 57.033-106.743-21.005 0.671-40.771 6.421-58.062 16.031 0-0.524 0-1.091 0-1.615 0-62.132 44.191-113.983 102.84-125.775-10.743-2.938-22.075-4.512-33.763-4.512-8.267 0-16.325 0.818-24.131 2.308 16.325-50.948 63.685-87.984 119.775-89.055-43.856-34.392-99.168-54.893-159.244-54.893-10.366 0-20.564 0.608-30.573 1.784 56.761-36.365 124.16-57.579 196.575-57.579 235.876 0 364.863 195.378 364.863 364.863 0 5.56-0.126 11.101-0.378 16.598 25.034 18.088 46.793 40.666 63.979 66.392z" horiz-adv-x="630" data-tags="twitter" />
<glyph unicode="&#xe609;" d="M225.243 222.281h-70.669v-252.065h-104.782v252.065h-49.791v89h49.791v57.662c0 41.259 19.614 105.714 105.735 105.714l77.587-0.29v-86.452h-56.337c-9.175 0-22.203-4.598-22.203-24.192v-52.422h79.845l-9.175-89.020z" horiz-adv-x="238" data-tags="facebook" />
<glyph unicode="&#xe60a;" d="M2.090-30.945c48.066 175.532 137.927 401.231 196.441 497.361l117.029 12.539c-45.976-123.298-100.31-338.547-123.298-489.002l-190.172-20.898zM313.469-30.945c45.965 175.532 137.916 401.231 194.351 497.361l117.028 12.539c-45.976-123.298-100.321-338.547-123.298-489.002l-188.082-20.898z" horiz-adv-x="627" data-tags="apostrophe" />
<glyph unicode="&#xe60b;" d="M131.328 25.66c-19.17 9.276-35.704-19.276-16.535-29.26 83.32-40.538 187.136-35.9 265.818 12.635 140.86 86.392 154.745 298.451 33.069 406.799-56.214 49.86-134.927 71.786-209.619 61.817-85.293-11.972-154.067-65.807-195.057-140.921-0.678-1.325-1.34-2.666-1.34-3.99-1.988-5.316-0.647-11.294 3.976-15.947 54.874-55.176 109.116-109.689 163.99-164.864 4.623-4.653 11.897-4.653 11.897-4.653 3.976 0 7.936 1.34 11.249 4.653 33.732 33.897 68.111 68.472 101.843 102.385v-69.135c0-21.278 33.039-21.278 33.039 0v110.336c0 5.331-1.988 9.307-4.638 11.957s-6.596 4.668-11.897 4.668h-107.776c-21.173 0-21.173-33.235 0-33.235h68.758c-30.404-30.584-60.838-61.169-91.257-91.754-46.953 47.872-95.217 95.729-142.833 143.586 46.953 77.764 127.624 123.633 219.542 114.989 88.621-8.644 164.653-68.458 191.744-154.202 25.148-80.429-1.973-179.471-65.461-235.309-68.066-59.813-178.492-70.445-258.515-30.555z" data-tags="external-link" />
<glyph unicode="&#xe60c;" d="M723.332 362.205l-351.428-352.274-107.661 107.403 351.428 352.274 107.662-107.403zM373.159 10.772l-353.667 349.985 106.998 108.123 353.667-349.985-106.998-108.124z" horiz-adv-x="768" data-tags="arrow-down" />
<glyph unicode="&#xe60d;" d="M19.517 117.332l351.428 352.274 107.661-107.403-351.428-352.274-107.662 107.403zM369.671 468.769l353.667-349.985-106.998-108.124-353.667 349.985 106.998 108.124z" horiz-adv-x="768" data-tags="arrow-up" />
<glyph unicode="&#xe60e;" d="M56.181 182.714h476.998l-127.488-127.534c-17.64-17.594-17.64-46.127 0-63.721 17.594-17.594 46.080-17.594 63.674 0l204.474 204.428c2.095 2.094 4.003 4.469 5.632 6.889 0.698 0.978 1.071 2.141 1.676 3.165 0.885 1.443 1.769 2.933 2.467 4.608 0.558 1.303 0.838 2.7 1.21 4.050 0.512 1.443 1.024 2.839 1.303 4.375 0.466 2.281 0.605 4.701 0.698 6.982 0.047 0.605 0.232 1.163 0.232 1.815 0 0.698-0.232 1.35-0.232 2.048-0.093 2.234-0.232 4.469-0.698 6.702-0.326 1.629-0.885 3.119-1.396 4.701-0.372 1.21-0.652 2.56-1.117 3.77-0.745 1.768-1.676 3.351-2.653 4.934-0.512 0.977-0.931 1.909-1.443 2.839-1.676 2.513-3.584 4.84-5.725 6.935l-204.428 204.428c-8.75 8.75-20.341 13.079-31.884 13.079s-23.040-4.329-31.791-13.126c-17.64-17.594-17.64-46.127 0-63.721l127.441-127.534h-476.952c-24.902 0-45.056-20.154-45.056-45.056s20.154-45.056 45.056-45.056z" horiz-adv-x="698" data-tags="head-arrow" />
<glyph unicode="&#xe60f;" d="M255.608 241.901l18.046-18.133-256.018-254.789-18.046 18.133 256.018 254.79zM273.636 224.371l-18.123-18.056-254.928 255.868 18.123 18.057 254.928-255.868z" horiz-adv-x="282" data-tags="slide-next" />
<glyph unicode="&#xe610;" d="M17.63 207.315l-18.044 18.136 256.054 254.754 18.043-18.135-256.054-254.754zM-0.389 224.83l18.117 18.050 254.928-255.867-18.117-18.050-254.928 255.868z" horiz-adv-x="282" data-tags="slide-prev" />
<glyph unicode="&#xe611;" d="M86.030 185.102h189.81v-31.63h-189.81v31.63zM86.030 280.022h189.81v-31.63h-189.81v31.63zM86.030 374.926h189.81v-31.644h-189.81v31.644zM434.034 396.018h-73.827v52.736c0 13.184-7.894 21.077-21.063 21.077h-316.387c-13.17 0-21.078-7.908-21.078-21.077v-390.173c0-13.198 7.907-21.106 21.078-21.106h73.814v-47.459c0-13.184 7.922-21.077 21.106-21.077h316.359c13.17 0 21.077 7.908 21.077 21.077v384.91c0 13.198-7.922 21.091-21.077 21.091zM33.309 79.659v347.99c0 6.585 3.94 10.553 10.553 10.553h274.148c6.613 0 10.553-3.968 10.553-10.553v-348.003c0-6.585-3.94-10.538-10.553-10.538h-274.162c-6.599 0-10.538 3.968-10.538 10.553zM423.466 11.122c0-6.585-3.954-10.538-10.538-10.538h-268.914c-6.585 0-10.553 3.925-10.553 10.538v26.368h205.654c13.184 0 21.063 7.908 21.063 21.091v300.53h52.736c6.585 0 10.538-3.954 10.538-10.538v-337.45z" horiz-adv-x="455" data-tags="cta" />
<glyph unicode="&#xe612;" d="M510.317 225.683c0-140.435-113.884-254.317-254.317-254.317s-254.317 113.957-254.317 254.317c0 140.507 113.883 254.317 254.317 254.317s254.317-113.81 254.317-254.317z" data-tags="dot" />
<glyph unicode="&#xe613;" d="M170.48-30.811c-15.525 0-30.456 6.309-41.225 17.805l-113.267 120.337c-21.438 22.759-20.348 58.632 2.412 80.070 22.826 21.372 58.632 20.348 80.037-2.445l60.845-64.644 188.548 329.993c15.558 27.12 50.143 36.599 77.296 21.075s36.534-50.11 21.041-77.262l-226.502-396.387c-8.886-15.625-24.642-26.063-42.48-28.144-2.246-0.264-4.493-0.397-6.706-0.397z" horiz-adv-x="454" data-tags="tick" />
<glyph unicode="&#xe614;" d="M64 320h384c17.664 0 32 14.336 32 32s-14.336 32-32 32h-384c-17.664 0-32-14.336-32-32s14.336-32 32-32zM448 256h-384c-17.664 0-32-14.336-32-32s14.336-32 32-32h384c17.664 0 32 14.336 32 32s-14.336 32-32 32zM448 128h-384c-17.664 0-32-14.336-32-32s14.336-32 32-32h384c17.664 0 32 14.336 32 32s-14.336 32-32 32z" data-tags="hamburger" />
<glyph unicode="&#xe615;" d="M36.544 408.475l37.353 37.798 406.584-401.783-37.353-37.798-406.584 401.783zM78.924 4.524l-37.798 37.353 401.783 406.584 37.798-37.352-401.783-406.585z" data-tags="close" />
<glyph unicode="&#xe616;" d="M3.428-32l486.311 493.412 486.288-493.412z" horiz-adv-x="980" data-tags="dark-up-arrow" />
<glyph unicode="&#xe617;" d="M420.132 137.935c0.024 56.32 0.049 112.665 0.061 169.009 0.024 38.449-2.401 79.104-11.569 116.517-11.020 44.959-66.95 51.139-105.277 53.248-66.913 3.694-134.803 0.195-201.826 0.195-126.171-2.487-98.207-167.253-98.207-250.477 0-79.981-31.122-257.548 97.268-250.197 52.809 2.999 106.63 0.049 159.512 0.049 42.24 0 83.565-3.815 121.185 19.553 48.384 30.025 38.839 93.587 38.851 142.104zM350.829 32.695c-33.901-21.065-97.207-9.021-133.449-9.021-42.594 0-89.332-6.558-131.572 0.707-49.005 8.448-32.451 97.28-32.451 133.12v195.145c0 35.365 4.096 74.118 48.164 74.118h167.997c16.64 0 33.121 1.426 49.737 0.049 18.432-1.548 40.436-3.56 45.373-23.674 5.303-21.638 5.741-44.605 6.985-66.78 2.621-46.043 1.146-92.197 1.122-138.289 0-39.436 18.237-140.435-21.906-165.376zM139.483 313.929h159.341c30.586 0 30.586 47.421 0 47.421h-159.341c-30.561 0-30.561-47.421 0-47.421zM296.168 169.313h5.339c12.922 0 23.711 10.776 23.711 23.699s-10.801 23.699-23.711 23.699h-5.339c-12.934 0-23.699-10.788-23.699-23.699 0-12.922 10.764-23.699 23.699-23.699zM221.172 169.313h5.339c12.922 0 23.698 10.776 23.698 23.699s-10.788 23.699-23.698 23.699h-5.339c-12.934 0-23.71-10.788-23.71-23.699 0-12.922 10.788-23.699 23.71-23.699zM146.81 169.313h5.351c12.922 0 23.71 10.776 23.71 23.699s-10.788 23.699-23.71 23.699h-5.351c-12.922 0-23.698-10.788-23.698-23.699 0.012-12.922 10.776-23.699 23.698-23.699zM296.168 83.627h5.339c12.922 0 23.711 10.788 23.711 23.686 0 12.947-10.801 23.711-23.711 23.711h-5.339c-12.934 0-23.699-10.776-23.699-23.711 0-12.909 10.764-23.686 23.699-23.686zM221.172 83.627h5.339c12.922 0 23.698 10.788 23.698 23.686 0 12.947-10.788 23.711-23.698 23.711h-5.339c-12.934 0-23.71-10.776-23.71-23.711 0-12.909 10.788-23.686 23.71-23.686zM146.81 83.627h5.351c12.922 0 23.71 10.788 23.71 23.686 0 12.947-10.788 23.711-23.71 23.711h-5.351c-12.922 0-23.698-10.776-23.698-23.711 0.012-12.909 10.776-23.686 23.698-23.686z" horiz-adv-x="427" data-tags="calculator" />
</font>
</defs>
</svg>
